<svg xmlns="http://www.w3.org/2000/svg" viewBox="0 0 500 500"><g id="freepik--Floor--inject-64"><ellipse id="freepik--floor--inject-64" cx="250" cy="353.11" rx="241.36" ry="139.35" style="fill:#fafafa"></ellipse></g><g id="freepik--Shadows--inject-64"><polygon id="freepik--Shadow--inject-64" points="484.74 318.35 378.19 379.71 208.11 281.46 314.66 220.11 484.74 318.35" style="fill:#f0f0f0"></polygon><ellipse id="freepik--shadow--inject-64" cx="173.84" cy="385.16" rx="137.86" ry="79.6" style="fill:#f0f0f0"></ellipse><polygon id="freepik--shadow--inject-64" points="146.49 246.3 214.91 206.71 292.15 251.31 223.73 290.9 146.49 246.3" style="fill:#f0f0f0"></polygon><ellipse id="freepik--shadow--inject-64" cx="430.27" cy="395.98" rx="53.69" ry="31" style="fill:#f0f0f0"></ellipse></g><g id="freepik--Window--inject-64"><g id="freepik--window--inject-64"><g id="freepik--window--inject-64"><polygon points="139.15 163.96 24 230.44 24 94.32 139.15 27.86 139.15 163.96" style="fill:#fff"></polygon><polygon points="21.74 231.75 24 233.09 141.4 165.31 139.15 163.96 21.74 231.75" style="fill:#fafafa"></polygon><path d="M145.66,19.16,19.74,91.86V240.47l125.92-72.7ZM141.4,165.31,24,233.09V94.32L141.4,26.54Z" style="fill:#f0f0f0"></path><polygon points="141.4 165.31 139.15 163.96 139.15 27.86 141.4 26.54 141.4 165.31" style="fill:#e0e0e0"></polygon><polygon points="145.66 19.16 143.37 17.85 17.45 90.55 19.74 91.86 145.66 19.16" style="fill:#fafafa"></polygon><polygon points="17.45 90.55 19.74 91.86 19.74 240.47 17.45 239.16 17.45 90.55" style="fill:#e0e0e0"></polygon><polygon points="25.88 159.51 25.88 162.16 141.4 95.37 139.15 94.03 25.88 159.51" style="fill:#fafafa"></polygon><polygon points="79.07 62.54 81.36 61.22 81.36 199.99 79.07 198.68 79.07 62.54" style="fill:#e0e0e0"></polygon><polygon points="85.62 58.77 81.36 61.22 81.36 199.99 85.62 197.53 85.62 58.77" style="fill:#f0f0f0"></polygon><polygon points="141.4 95.37 141.4 100.29 23.95 168.35 23.95 163.44 141.4 95.37" style="fill:#f0f0f0"></polygon><polygon points="81.36 130.17 79.07 128.76 24 160.59 24 163.44 81.36 130.17" style="fill:#fafafa"></polygon></g><g id="freepik--Curtains--inject-64"><path d="M135,13.51V32.27S97.66,142.5,41.61,179.4v74.31a3,3,0,0,1-4.06,2.34s-1.54,3.8-4.06,2.35c0,0-1.71,3.71-4.07,2.34,0,0-1.74,3.69-4.06,2.35,0,0-1.33,3.92-4.06,2.34V79.18Z" style="fill:#f0f0f0"></path><path d="M37.55,256.05c.2-6.29.3-12.58.38-18.87s.08-12.58.12-18.87,0-12.58-.12-18.87L37.79,190c-.08-3.14-.13-6.29-.24-9.43-.12,3.14-.16,6.29-.25,9.43l-.14,9.44c-.08,6.29-.07,12.58-.11,18.87s0,12.58.12,18.87S37.34,249.76,37.55,256.05Z" style="fill:#e0e0e0"></path><path d="M33.49,258.4c.2-6.29.3-12.58.38-18.87s.07-12.58.12-18.88,0-12.58-.12-18.87l-.14-9.43c-.08-3.15-.13-6.29-.24-9.44-.12,3.15-.17,6.29-.25,9.44l-.14,9.43C33,208.07,33,214.36,33,220.65s0,12.59.11,18.88S33.28,252.11,33.49,258.4Z" style="fill:#e0e0e0"></path><path d="M29.42,260.74c.21-6.29.31-12.58.39-18.87s.07-12.58.11-18.87,0-12.58-.11-18.87l-.14-9.44c-.08-3.14-.13-6.29-.25-9.43-.11,3.14-.16,6.29-.24,9.43L29,204.13C29,210.42,29,216.71,28.92,223s0,12.58.12,18.87S29.22,254.45,29.42,260.74Z" style="fill:#e0e0e0"></path><path d="M25.36,263.09c.21-6.29.3-12.58.38-18.87s.08-12.58.12-18.87,0-12.59-.11-18.88L25.61,197c-.09-3.15-.13-6.29-.25-9.44-.11,3.15-.16,6.29-.24,9.44L25,206.47c-.08,6.29-.08,12.58-.12,18.88s0,12.58.12,18.87S25.16,256.8,25.36,263.09Z" style="fill:#e0e0e0"></path><path d="M135,32.27q-14.37,7.95-28.63,16.09L77.92,64.67,49.54,81.19,35.4,89.52,21.3,97.94l14.34-8,14.29-8.08L78.42,65.54,106.8,49Q120.95,40.71,135,32.27Z" style="fill:#e0e0e0"></path><path d="M41.61,170.64a52.13,52.13,0,0,0,4.7-5.47c1.46-1.91,2.89-3.85,4.27-5.82q4.11-5.92,7.89-12.08Q66,135,72.47,122.05c2.13-4.32,4.18-8.68,6.1-13.09s3.71-8.89,5.31-13.44c3.21-9.06,5.85-18.46,6.48-28.07a96.51,96.51,0,0,1-3.22,14c-1.37,4.58-3,9.08-4.72,13.54-3.49,8.9-7.47,17.61-11.74,26.18s-8.8,17-13.55,25.32c-2.39,4.15-4.82,8.27-7.37,12.33A106.55,106.55,0,0,1,41.61,170.64Z" style="fill:#e0e0e0"></path><path d="M29.42,182.37A174.67,174.67,0,0,0,42.05,160.7a216.42,216.42,0,0,0,9.81-23.11c.67-2,1.42-3.94,2-6l1.84-6c.6-2,1.06-4,1.6-6.08l.78-3c.24-1,.42-2.06.64-3.08L60,107.27l.89-6.22.41-3.11.23-3.13q.25-3.14.43-6.25-.51,3.09-1,6.19l-.46,3.08-.63,3.07L58.68,107l-1.47,6.06A238.87,238.87,0,0,1,50,136.92c-2.77,7.83-5.9,15.53-9.33,23.12L38,165.7c-.92,1.86-1.81,3.75-2.75,5.6C33.43,175.05,31.46,178.72,29.42,182.37Z" style="fill:#e0e0e0"></path><path d="M25.36,184.71a170.84,170.84,0,0,0,7.31-22.11,213.7,213.7,0,0,0,4.63-22.86c.25-1.93.54-3.85.75-5.79l.57-5.81c.21-1.93.23-3.88.36-5.82s.23-3.89.19-5.84a138.8,138.8,0,0,0-1.62-23.23c.05,1.94.13,3.88.22,5.81,0,1,.1,1.93.12,2.9l0,2.9c0,1.93,0,3.86,0,5.79l-.24,5.79c-.45,7.7-1.12,15.39-2.29,23s-2.51,15.23-4.16,22.78l-1.31,5.64c-.47,1.88-.9,3.76-1.4,5.63C27.53,177.27,26.46,181,25.36,184.71Z" style="fill:#e0e0e0"></path><path d="M131,15.86a75.49,75.49,0,0,0-.5,9.38,75.7,75.7,0,0,0,.5,9.38,79.79,79.79,0,0,0,.5-9.38A79.56,79.56,0,0,0,131,15.86Z" style="fill:#e0e0e0"></path><path d="M126.91,18.2a77.57,77.57,0,0,0-.49,9.38,77.46,77.46,0,0,0,.49,9.38,75.49,75.49,0,0,0,.5-9.38A75.59,75.59,0,0,0,126.91,18.2Z" style="fill:#e0e0e0"></path><path d="M122.85,20.55a79.56,79.56,0,0,0-.5,9.38,79.79,79.79,0,0,0,.5,9.38,75.7,75.7,0,0,0,.5-9.38A75.49,75.49,0,0,0,122.85,20.55Z" style="fill:#e0e0e0"></path><path d="M118.79,22.89a79.79,79.79,0,0,0-.5,9.38,75.49,75.49,0,0,0,.5,9.38,75.49,75.49,0,0,0,.5-9.38A79.79,79.79,0,0,0,118.79,22.89Z" style="fill:#e0e0e0"></path><path d="M114.73,25.24a75.49,75.49,0,0,0-.5,9.38,75.7,75.7,0,0,0,.5,9.38,79.79,79.79,0,0,0,.5-9.38A79.56,79.56,0,0,0,114.73,25.24Z" style="fill:#e0e0e0"></path><path d="M110.66,27.58a77.67,77.67,0,0,0-.49,9.38,77.46,77.46,0,0,0,.49,9.38,75.49,75.49,0,0,0,.5-9.38A75.7,75.7,0,0,0,110.66,27.58Z" style="fill:#e0e0e0"></path><path d="M106.6,29.93a79.56,79.56,0,0,0-.5,9.38,79.67,79.67,0,0,0,.5,9.38,75.59,75.59,0,0,0,.5-9.38A75.49,75.49,0,0,0,106.6,29.93Z" style="fill:#e0e0e0"></path><path d="M102.54,32.27a79.79,79.79,0,0,0-.5,9.38,75.49,75.49,0,0,0,.5,9.38,75.49,75.49,0,0,0,.5-9.38A79.79,79.79,0,0,0,102.54,32.27Z" style="fill:#e0e0e0"></path><path d="M98.48,34.62A75.59,75.59,0,0,0,98,44a75.59,75.59,0,0,0,.5,9.38A79.67,79.67,0,0,0,99,44,79.67,79.67,0,0,0,98.48,34.62Z" style="fill:#e0e0e0"></path><path d="M94.42,37a75.7,75.7,0,0,0-.5,9.38,75.75,75.75,0,0,0,.5,9.39,77.73,77.73,0,0,0,.49-9.39A77.67,77.67,0,0,0,94.42,37Z" style="fill:#e0e0e0"></path><path d="M90.35,39.31a79.67,79.67,0,0,0-.5,9.38,79.67,79.67,0,0,0,.5,9.38,75.59,75.59,0,0,0,.5-9.38A75.59,75.59,0,0,0,90.35,39.31Z" style="fill:#e0e0e0"></path><path d="M86.29,41.65a79.84,79.84,0,0,0-.5,9.39,75.7,75.7,0,0,0,.5,9.38,75.7,75.7,0,0,0,.5-9.38A79.84,79.84,0,0,0,86.29,41.65Z" style="fill:#e0e0e0"></path><path d="M82.23,44a75.59,75.59,0,0,0-.5,9.38,75.49,75.49,0,0,0,.5,9.38,79.56,79.56,0,0,0,.5-9.38A79.67,79.67,0,0,0,82.23,44Z" style="fill:#e0e0e0"></path><path d="M78.17,46.35a75.49,75.49,0,0,0-.5,9.38,75.7,75.7,0,0,0,.5,9.38,77.67,77.67,0,0,0,.49-9.38A77.46,77.46,0,0,0,78.17,46.35Z" style="fill:#e0e0e0"></path><path d="M74.1,48.69a79.67,79.67,0,0,0-.5,9.38,79.56,79.56,0,0,0,.5,9.38,75.49,75.49,0,0,0,.5-9.38A75.59,75.59,0,0,0,74.1,48.69Z" style="fill:#e0e0e0"></path><path d="M70,51a79.56,79.56,0,0,0-.5,9.38A75.7,75.7,0,0,0,70,69.8a75.7,75.7,0,0,0,.5-9.38A79.56,79.56,0,0,0,70,51Z" style="fill:#e0e0e0"></path><path d="M66,53.38a75.7,75.7,0,0,0-.5,9.38,75.49,75.49,0,0,0,.5,9.38,79.56,79.56,0,0,0,.5-9.38A79.79,79.79,0,0,0,66,53.38Z" style="fill:#e0e0e0"></path><path d="M61.92,55.73a75.49,75.49,0,0,0-.5,9.38,75.59,75.59,0,0,0,.5,9.38,79.67,79.67,0,0,0,.5-9.38A79.56,79.56,0,0,0,61.92,55.73Z" style="fill:#e0e0e0"></path><path d="M57.86,58.07a79.67,79.67,0,0,0-.5,9.38,75.59,75.59,0,0,0,.5,9.38,75.59,75.59,0,0,0,.5-9.38A79.67,79.67,0,0,0,57.86,58.07Z" style="fill:#e0e0e0"></path><path d="M53.8,60.41a79.79,79.79,0,0,0-.5,9.38,79.56,79.56,0,0,0,.5,9.38,75.49,75.49,0,0,0,.5-9.38A75.7,75.7,0,0,0,53.8,60.41Z" style="fill:#e0e0e0"></path><path d="M49.75,62.75a79.84,79.84,0,0,0-.5,9.39,75.7,75.7,0,0,0,.5,9.38,79.79,79.79,0,0,0,.5-9.38A79.84,79.84,0,0,0,49.75,62.75Z" style="fill:#e0e0e0"></path><path d="M45.69,65.1a79.56,79.56,0,0,0-.5,9.38,79.79,79.79,0,0,0,.5,9.38,75.7,75.7,0,0,0,.5-9.38A75.49,75.49,0,0,0,45.69,65.1Z" style="fill:#e0e0e0"></path><path d="M41.64,67.44a75.59,75.59,0,0,0-.5,9.38,75.59,75.59,0,0,0,.5,9.38,79.67,79.67,0,0,0,.5-9.38A79.67,79.67,0,0,0,41.64,67.44Z" style="fill:#e0e0e0"></path><path d="M37.58,69.78a79.79,79.79,0,0,0-.5,9.38,79.56,79.56,0,0,0,.5,9.38,75.49,75.49,0,0,0,.5-9.38A75.7,75.7,0,0,0,37.58,69.78Z" style="fill:#e0e0e0"></path><path d="M33.53,72.12a75.75,75.75,0,0,0-.5,9.39,75.7,75.7,0,0,0,.5,9.38,79.79,79.79,0,0,0,.5-9.38A79.84,79.84,0,0,0,33.53,72.12Z" style="fill:#e0e0e0"></path><path d="M29.47,74.47a79.56,79.56,0,0,0-.5,9.38,79.79,79.79,0,0,0,.5,9.38,75.7,75.7,0,0,0,.5-9.38A79.56,79.56,0,0,0,29.47,74.47Z" style="fill:#e0e0e0"></path><path d="M25.42,76.81a75.59,75.59,0,0,0-.5,9.38,75.59,75.59,0,0,0,.5,9.38,79.67,79.67,0,0,0,.5-9.38A79.67,79.67,0,0,0,25.42,76.81Z" style="fill:#e0e0e0"></path></g></g></g><g id="freepik--Pictures--inject-64"><g id="freepik--Picture--inject-64"><g id="freepik--Frame--inject-64"><polygon points="445.18 144.14 443.57 145.1 410.7 126.11 412.3 125.16 445.18 144.14" style="fill:#fafafa"></polygon><polygon points="412.3 125.16 443.57 143.21 443.57 110.46 412.3 92.42 412.3 125.16" style="fill:#fff"></polygon><path d="M407.67,127.86l38.93,22.47V108.72L407.67,86.24Zm3-36.38,32.87,19V145.1l-32.87-19Z" style="fill:#f0f0f0"></path><polygon points="410.7 126.11 412.3 125.16 412.3 92.42 410.7 91.48 410.7 126.11" style="fill:#e0e0e0"></polygon><polygon points="407.67 86.24 409.3 85.31 448.22 107.78 446.6 108.72 407.67 86.24" style="fill:#fafafa"></polygon><polygon points="448.22 107.78 446.6 108.72 446.6 150.33 448.22 149.4 448.22 107.78" style="fill:#e0e0e0"></polygon></g><g id="freepik--Land--inject-64"><polygon points="413.52 124.18 442.35 140.83 442.35 132.5 435.14 115.86 430.65 120.02 432.27 127 422.31 105.7 413.52 115.86 413.52 124.18" style="fill:#f0f0f0"></polygon><path d="M430.93,107.82a4.73,4.73,0,0,1,2.13,3.69c0,1.36-1,1.91-2.13,1.23a4.71,4.71,0,0,1-2.14-3.69C428.79,107.69,429.75,107.14,430.93,107.82Z" style="fill:#f0f0f0"></path></g></g><g id="freepik--picture--inject-64"><g id="freepik--frame--inject-64"><polygon points="388.68 93.55 387.07 94.51 354.2 75.53 355.8 74.57 388.68 93.55" style="fill:#fafafa"></polygon><polygon points="355.8 74.57 387.07 92.62 387.07 59.87 355.8 41.83 355.8 74.57" style="fill:#fff"></polygon><path d="M351.17,77.27,390.1,99.74V58.13L351.17,35.65Zm3-36.38,32.87,19V94.51l-32.88-19Z" style="fill:#f0f0f0"></path><polygon points="354.2 75.53 355.8 74.57 355.8 41.83 354.2 40.89 354.2 75.53" style="fill:#e0e0e0"></polygon><polygon points="351.18 35.65 352.8 34.72 391.73 57.2 390.1 58.13 351.18 35.65" style="fill:#fafafa"></polygon><polygon points="391.73 57.2 390.1 58.13 390.1 99.74 391.73 98.81 391.73 57.2" style="fill:#e0e0e0"></polygon></g><g id="freepik--land--inject-64"><polygon points="357.02 73.59 385.85 90.24 385.85 81.91 378.64 65.27 374.15 69.43 375.77 76.41 365.81 55.11 357.02 65.27 357.02 73.59" style="fill:#f0f0f0"></polygon><path d="M374.43,57.23a4.73,4.73,0,0,1,2.13,3.69c0,1.36-1,1.91-2.13,1.23a4.71,4.71,0,0,1-2.14-3.69C372.29,57.1,373.25,56.55,374.43,57.23Z" style="fill:#f0f0f0"></path></g></g></g><g id="freepik--side-table--inject-64"><g id="freepik--side-table--inject-64"><polygon points="163.34 248.81 174.35 242.45 163.34 239.26 163.34 248.81" style="fill:#e0e0e0"></polygon><polygon points="163.34 248.81 174.35 242.45 163.34 239.26 163.34 248.81" style="opacity:0.05"></polygon><polygon points="218.52 271.13 218.52 281.27 282.03 244.52 282.03 234.37 218.52 271.13" style="fill:#e0e0e0"></polygon><polygon points="218.52 271.13 218.52 281.27 282.03 244.52 282.03 234.37 218.52 271.13" style="opacity:0.05"></polygon><polygon points="287.54 154.87 224.02 191.62 224.02 274.31 287.54 237.55 287.54 154.87" style="fill:#ebebeb"></polygon><polygon points="224.02 191.62 152.32 150.22 152.32 232.91 224.02 274.31 224.02 191.62" style="fill:#f5f5f5"></polygon><polygon points="152.32 150.22 215.83 113.46 287.54 154.87 224.02 191.62 152.32 150.22" style="fill:#fafafa"></polygon><polygon points="218.52 281.27 213.01 278.09 213.01 267.95 218.52 271.13 218.52 281.27" style="fill:#ebebeb"></polygon><polygon points="163.34 248.81 157.82 245.63 157.82 236.09 163.34 239.26 163.34 248.81" style="fill:#ebebeb"></polygon><polygon points="218.52 196.09 157.82 161.05 157.82 180.13 218.52 215.18 218.52 196.09" style="fill:#ebebeb"></polygon><path d="M199.71,189.25c0,.88-2.63.08-5.88-1.8l-10.28-5.94c-3.25-1.87-5.88-4.1-5.88-5v-1.59l22,12.72Z" style="fill:#e0e0e0"></path><polygon points="218.52 220.24 157.82 185.2 157.82 204.28 218.52 239.32 218.52 220.24" style="fill:#ebebeb"></polygon><path d="M199.71,213.4c0,.88-2.63.07-5.88-1.8l-10.28-5.94c-3.25-1.87-5.88-4.1-5.88-5v-1.59l22,12.72Z" style="fill:#e0e0e0"></path><polygon points="218.52 244.39 157.82 209.35 157.82 228.43 218.52 263.47 218.52 244.39" style="fill:#ebebeb"></polygon><path d="M199.71,237.55c0,.88-2.63.07-5.88-1.8l-10.28-5.94c-3.25-1.87-5.88-4.1-5.88-5v-1.59l22,12.72Z" style="fill:#e0e0e0"></path><g id="freepik--shadow--inject-64"><path id="freepik--shadow--inject-64" d="M224.08,159.83a24.39,24.39,0,0,1-13.35-3.63c-3.11-2.07-4.83-4.66-4.83-7.29s1.72-5.21,4.83-7.28a26.28,26.28,0,0,1,26.69,0c3.12,2.07,4.83,4.65,4.83,7.28s-1.71,5.22-4.83,7.29A24.33,24.33,0,0,1,224.08,159.83Z" style="fill:#f0f0f0"></path></g><g id="freepik--Lamp--inject-64"><path d="M236,148a4.45,4.45,0,0,0-.1-.95,14.11,14.11,0,0,0-5.76-8.59H218.1a14.15,14.15,0,0,0-5.76,8.59,3.89,3.89,0,0,0-.1.95,1.08,1.08,0,0,0,0,.16c.11,1.67,1.25,3.32,3.46,4.59,4.64,2.68,12.17,2.68,16.81,0,2.21-1.27,3.35-2.92,3.46-4.59A1.08,1.08,0,0,0,236,148Z" style="fill:#e0e0e0"></path><path d="M218.41,138.31c-3.16,1.82-3.16,4.77,0,6.59a12.58,12.58,0,0,0,11.43,0c3.15-1.82,3.15-4.77,0-6.59A12.58,12.58,0,0,0,218.41,138.31Z" style="fill:#ebebeb"></path><path d="M225.77,90.64h-3.29v49.7h0a.76.76,0,0,0,.46.75,2.58,2.58,0,0,0,2.33,0,.76.76,0,0,0,.46-.75h0Z" style="fill:#e0e0e0"></path><path d="M248.36,84.31h0L237,55.21H211.29l-11.41,29.1h0c-1.62,4.56.61,9.48,6.73,13,9.67,5.58,25.34,5.58,35,0C247.75,93.79,250,88.87,248.36,84.31Z" style="fill:#f0f0f0"></path><path d="M214.84,62.18c5.13,3,13.44,3,18.57,0s5.13-7.76,0-10.72-13.44-3-18.57,0S209.71,59.22,214.84,62.18Z" style="fill:#fafafa"></path><path d="M224.12,62.88a17.34,17.34,0,0,1-8.52-2c-2-1.15-3.08-2.58-3.08-4s1.09-2.89,3.08-4a19,19,0,0,1,17.05,0c2,1.15,3.08,2.58,3.08,4s-1.09,2.89-3.08,4A17.38,17.38,0,0,1,224.12,62.88Z" style="fill:#e0e0e0"></path></g></g></g><g id="freepik--Cradle--inject-64"><g id="freepik--cradle--inject-64"><path d="M366.91,364.62a1.58,1.58,0,0,0,.31.27l.23.14,4.95,2.86a1.82,1.82,0,0,0,.8.24,3.48,3.48,0,0,0,.41,0c13.28-.35,29.92-6,44.84-14.59s31.53-22.18,44.79-37.14a7,7,0,0,0,.69-.81,9.93,9.93,0,0,0,.95-1.57c.1-.23.21-.45.31-.68l0,0c1-2.41,1.25-5.2.51-7.05a2.86,2.86,0,0,0-1.14-1.46c-.95-.58-4.51-2.59-5-2.87-1.19-.72-2.84-.1-4.27,1.83a11.14,11.14,0,0,0-1.65,3.35,24,24,0,0,1-5.45,9.82,183.53,183.53,0,0,1-34.77,26.54c-11.15,6.44-24.3,11.81-34.59,13.57l-.3,0a4.51,4.51,0,0,1-.3-.58,2.72,2.72,0,0,0-1.12-1.31l-4.93-2.85a1.93,1.93,0,0,0-.86-.27c-1.47-.11-3.1,1.33-4.22,3.5a11.67,11.67,0,0,0-1,2.82C365.45,361.1,365.82,363.51,366.91,364.62Z" style="fill:#f0f0f0"></path><path d="M366.91,364.62a1.58,1.58,0,0,0,.31.27l.23.14,4.95,2.86a1.82,1.82,0,0,0,.8.24,3.48,3.48,0,0,0,.41,0c13.28-.35,29.92-6,44.84-14.59s31.53-22.18,44.79-37.14a7,7,0,0,0,.69-.81,9.93,9.93,0,0,0,.95-1.57c.1-.23.21-.45.31-.68l0,0c1-2.41,1.25-5.2.51-7.05a2.86,2.86,0,0,0-1.14-1.46c-.95-.58-4.51-2.59-5-2.87-1.19-.72-2.84-.1-4.27,1.83a11.14,11.14,0,0,0-1.65,3.35,24,24,0,0,1-5.45,9.82,183.53,183.53,0,0,1-34.77,26.54c-11.15,6.44-24.3,11.81-34.59,13.57l-.3,0a4.51,4.51,0,0,1-.3-.58,2.72,2.72,0,0,0-1.12-1.31l-4.93-2.85a1.93,1.93,0,0,0-.86-.27c-1.47-.11-3.1,1.33-4.22,3.5a11.67,11.67,0,0,0-1,2.82C365.45,361.1,365.82,363.51,366.91,364.62Z" style="opacity:0.1"></path><path d="M371.88,367.49a1.64,1.64,0,0,0,.32.27,1.88,1.88,0,0,0,1,.37,3.48,3.48,0,0,0,.41,0c13.28-.35,29.92-6,44.84-14.59s31.53-22.18,44.79-37.14a7,7,0,0,0,.69-.81,9.93,9.93,0,0,0,.95-1.57c.1-.23.21-.45.31-.68l0,0c1-2.41,1.25-5.2.51-7.05a2.86,2.86,0,0,0-1.14-1.46c-1.18-.72-2.83-.1-4.26,1.83a11.34,11.34,0,0,0-1.66,3.36,24.08,24.08,0,0,1-5.44,9.81,184.34,184.34,0,0,1-34.77,26.55c-11.15,6.43-24.3,11.8-34.6,13.57-2.36.4-4.38-.81-5.57-3.42a2.39,2.39,0,0,0-1.93-1.56c-1.47-.11-3.11,1.33-4.23,3.5a12.26,12.26,0,0,0-1,2.82C370.42,364,370.79,366.38,371.88,367.49Z" style="fill:#e0e0e0"></path><path d="M366.91,364.62a1.58,1.58,0,0,0,.31.27l.23.14,4.82,2.78-.07-.05a1.64,1.64,0,0,1-.32-.27c-1.09-1.11-1.45-3.52-.8-6.25a12.26,12.26,0,0,1,1-2.82c1.12-2.17,2.76-3.61,4.23-3.5a2.08,2.08,0,0,1,.84.27l0,0-4.93-2.85a2.07,2.07,0,0,0-.85-.27c-1.48-.11-3.11,1.33-4.24,3.5a12.09,12.09,0,0,0-1,2.82C365.45,361.1,365.82,363.51,366.91,364.62Z" style="fill:#e0e0e0"></path><path d="M432.42,260.81l5,2.87c-2.45,31.27,2.4,47,9.57,61.93L442,322.76C434.87,307.83,430,292.08,432.42,260.81Z" style="fill:#e0e0e0"></path><path d="M432.42,260.81l5,2.87c-2.45,31.27,2.4,47,9.57,61.93L442,322.76C434.87,307.83,430,292.08,432.42,260.81Z" style="opacity:0.15"></path><path d="M437.39,263.68l4.55-1.19c-2.45,31.27,2.44,44,9.62,58.9-1.41,1.35-2.95,2.76-4.6,4.22C439.79,310.68,434.94,295,437.39,263.68Z" style="fill:#e0e0e0"></path><path d="M397.27,326.82,439,302.75c-.43-2.06-.79-4.17-1.09-6.3l-39.7,22.93C397.53,319.72,397,327,397.27,326.82Z" style="fill:#e0e0e0"></path><polygon points="393.2 316.51 432.91 293.58 437.87 296.45 398.18 319.38 393.2 316.51" style="fill:#e0e0e0"></polygon><polygon points="393.2 316.51 432.91 293.58 437.87 296.45 398.18 319.38 393.2 316.51" style="opacity:0.1"></polygon><path d="M389.91,358.54c7.17-23.21,9.68-41.43,9.61-72.92l-4.46,2.58c.06,31.48-2,46.71-9.89,71.45Q387.53,359.18,389.91,358.54Z" style="fill:#e0e0e0"></path><path d="M385.17,359.65c7.9-24.74,9.95-40,9.89-71.45l-5-2.87c.07,31.48-2,46.71-9.89,71.45Z" style="fill:#e0e0e0"></path><path d="M385.17,359.65c7.9-24.74,9.95-40,9.89-71.45l-5-2.87c.07,31.48-2,46.71-9.89,71.45Z" style="opacity:0.15"></path><path d="M246.6,295.13a1.31,1.31,0,0,0,.31.27,1.5,1.5,0,0,0,.23.15l5,2.86a2.13,2.13,0,0,0,.8.24,2.68,2.68,0,0,0,.41,0c13.28-.35,29.92-6,44.84-14.59s31.53-22.17,44.79-37.13a7.26,7.26,0,0,0,.69-.82,9.5,9.5,0,0,0,.95-1.57c.1-.22.2-.45.31-.67a.08.08,0,0,0,0,0c1-2.41,1.26-5.21.52-7.06a2.87,2.87,0,0,0-1.14-1.45c-.95-.58-4.51-2.6-5-2.87-1.19-.73-2.84-.11-4.27,1.82a11.32,11.32,0,0,0-1.65,3.36,24,24,0,0,1-5.45,9.81A183.18,183.18,0,0,1,293.16,274c-11.15,6.44-24.3,11.8-34.59,13.57l-.3,0a6.36,6.36,0,0,1-.3-.58,2.79,2.79,0,0,0-1.12-1.32l-4.93-2.84a1.82,1.82,0,0,0-.86-.27c-1.47-.12-3.1,1.32-4.22,3.49a11.83,11.83,0,0,0-1.05,2.82C245.14,291.62,245.51,294,246.6,295.13Z" style="fill:#f0f0f0"></path><path d="M246.6,295.13a1.31,1.31,0,0,0,.31.27,1.5,1.5,0,0,0,.23.15l5,2.86a2.13,2.13,0,0,0,.8.24,2.68,2.68,0,0,0,.41,0c13.28-.35,29.92-6,44.84-14.59s31.53-22.17,44.79-37.13a7.26,7.26,0,0,0,.69-.82,9.5,9.5,0,0,0,.95-1.57c.1-.22.2-.45.31-.67a.08.08,0,0,0,0,0c1-2.41,1.26-5.21.52-7.06a2.87,2.87,0,0,0-1.14-1.45c-.95-.58-4.51-2.6-5-2.87-1.19-.73-2.84-.11-4.27,1.82a11.32,11.32,0,0,0-1.65,3.36,24,24,0,0,1-5.45,9.81A183.18,183.18,0,0,1,293.16,274c-11.15,6.44-24.3,11.8-34.59,13.57l-.3,0a6.36,6.36,0,0,1-.3-.58,2.79,2.79,0,0,0-1.12-1.32l-4.93-2.84a1.82,1.82,0,0,0-.86-.27c-1.47-.12-3.1,1.32-4.22,3.49a11.83,11.83,0,0,0-1.05,2.82C245.14,291.62,245.51,294,246.6,295.13Z" style="opacity:0.1"></path><path d="M251.57,298a1.15,1.15,0,0,0,.32.27,1.89,1.89,0,0,0,1,.38,2.68,2.68,0,0,0,.41,0c13.28-.35,29.92-6,44.84-14.59s31.53-22.17,44.79-37.13a7.26,7.26,0,0,0,.69-.82,9.5,9.5,0,0,0,.95-1.57c.1-.22.2-.45.31-.67a.08.08,0,0,0,0,0c1-2.41,1.26-5.21.52-7.06a2.87,2.87,0,0,0-1.14-1.45c-1.18-.72-2.83-.11-4.26,1.83a11.41,11.41,0,0,0-1.66,3.35,24,24,0,0,1-5.44,9.81,183.5,183.5,0,0,1-34.77,26.55c-11.15,6.44-24.3,11.81-34.6,13.57-2.36.41-4.38-.81-5.57-3.41a2.37,2.37,0,0,0-1.93-1.56c-1.47-.12-3.11,1.33-4.23,3.49a12.34,12.34,0,0,0-1,2.83C250.11,294.49,250.48,296.9,251.57,298Z" style="fill:#e0e0e0"></path><path d="M246.6,295.13a1.12,1.12,0,0,0,.31.27,1.5,1.5,0,0,0,.23.15l4.82,2.78-.07-.05a1.64,1.64,0,0,1-.32-.27c-1.09-1.11-1.45-3.52-.8-6.26a12.18,12.18,0,0,1,1-2.81c1.12-2.17,2.76-3.62,4.23-3.5a2.23,2.23,0,0,1,.84.26h0c-.24-.15-4.48-2.59-4.93-2.85a1.93,1.93,0,0,0-.85-.27c-1.48-.12-3.12,1.33-4.24,3.5a12.18,12.18,0,0,0-1,2.81C245.14,291.62,245.51,294,246.6,295.13Z" style="fill:#e0e0e0"></path><path d="M312.11,191.33l5,2.87c-2.45,31.27,2.4,47,9.57,61.93l-4.92-2.85C314.56,238.35,309.66,222.59,312.11,191.33Z" style="fill:#e0e0e0"></path><path d="M312.11,191.33l5,2.87c-2.45,31.27,2.4,47,9.57,61.93l-4.92-2.85C314.56,238.35,309.66,222.59,312.11,191.33Z" style="opacity:0.15"></path><path d="M317.08,194.2l4.55-1.19c-2.45,31.26,2.44,44,9.62,58.9-1.41,1.34-2.95,2.76-4.6,4.22C319.48,241.19,314.63,225.47,317.08,194.2Z" style="fill:#e0e0e0"></path><path d="M277,257.34l41.69-24.07c-.43-2.06-.79-4.17-1.09-6.3l-39.7,22.93C277.22,250.23,276.64,257.54,277,257.34Z" style="fill:#e0e0e0"></path><polygon points="272.89 247.02 312.6 224.1 317.56 226.97 277.86 249.9 272.89 247.02" style="fill:#e0e0e0"></polygon><polygon points="272.89 247.02 312.6 224.1 317.56 226.97 277.86 249.9 272.89 247.02" style="opacity:0.1"></polygon><path d="M269.6,289.06c7.17-23.22,9.68-41.44,9.61-72.92l-4.46,2.58c.06,31.48-2,46.71-9.89,71.45C266.43,289.85,268,289.49,269.6,289.06Z" style="fill:#e0e0e0"></path><path d="M264.86,290.17c7.9-24.74,9.95-40,9.89-71.45l-5-2.87c.07,31.48-2,46.71-9.89,71.45Z" style="fill:#e0e0e0"></path><path d="M264.86,290.17c7.9-24.74,9.95-40,9.89-71.45l-5-2.87c.07,31.48-2,46.71-9.89,71.45Z" style="opacity:0.15"></path><polygon points="337.02 184.02 337.02 124.69 334.32 123.12 334.32 182.46 337.02 184.02" style="fill:#e0e0e0"></polygon><polygon points="337.02 184.02 337.02 124.69 339.73 123.12 339.73 182.46 337.02 184.02" style="fill:#f0f0f0"></polygon><polygon points="347.85 190.28 347.85 130.94 345.15 129.37 345.15 188.71 347.85 190.28" style="fill:#e0e0e0"></polygon><polygon points="347.86 190.28 347.85 130.94 350.56 129.37 350.56 188.71 347.86 190.28" style="fill:#f0f0f0"></polygon><polygon points="358.69 196.53 358.69 137.19 355.98 135.63 355.98 194.97 358.69 196.53" style="fill:#e0e0e0"></polygon><polygon points="358.69 196.53 358.69 137.19 361.39 135.63 361.39 194.97 358.69 196.53" style="fill:#f0f0f0"></polygon><polygon points="369.51 202.78 369.51 143.44 366.81 141.88 366.81 201.22 369.51 202.78" style="fill:#e0e0e0"></polygon><polygon points="369.52 202.78 369.51 143.44 372.22 141.88 372.22 201.22 369.52 202.78" style="fill:#f0f0f0"></polygon><polygon points="380.35 209.03 380.35 149.7 377.64 148.13 377.64 207.47 380.35 209.03" style="fill:#e0e0e0"></polygon><polygon points="380.35 209.03 380.35 149.7 383.05 148.13 383.05 207.47 380.35 209.03" style="fill:#f0f0f0"></polygon><polygon points="391.18 215.29 391.18 155.95 388.47 154.39 388.47 213.72 391.18 215.29" style="fill:#e0e0e0"></polygon><polygon points="391.18 215.29 391.18 155.95 393.88 154.39 393.88 213.72 391.18 215.29" style="fill:#f0f0f0"></polygon><polygon points="402.01 221.54 402.01 162.2 399.3 160.64 399.3 219.98 402.01 221.54" style="fill:#e0e0e0"></polygon><polygon points="402.01 221.54 402.01 162.2 404.71 160.64 404.71 219.98 402.01 221.54" style="fill:#f0f0f0"></polygon><polygon points="412.84 227.79 412.84 168.46 410.13 166.89 410.13 226.23 412.84 227.79" style="fill:#e0e0e0"></polygon><polygon points="412.84 227.79 412.84 168.46 415.55 166.89 415.55 226.23 412.84 227.79" style="fill:#f0f0f0"></polygon><polygon points="423.67 234.05 423.67 174.71 420.96 173.15 420.96 232.48 423.67 234.05" style="fill:#e0e0e0"></polygon><polygon points="423.67 234.05 423.67 174.71 426.38 173.15 426.38 232.48 423.67 234.05" style="fill:#f0f0f0"></polygon><polygon points="434.5 240.3 434.5 180.96 431.79 179.4 431.79 238.74 434.5 240.3" style="fill:#e0e0e0"></polygon><polygon points="434.5 240.3 434.5 180.96 437.21 179.4 437.21 238.74 434.5 240.3" style="fill:#f0f0f0"></polygon><polygon points="445.33 246.55 445.33 187.22 442.62 185.65 442.62 244.99 445.33 246.55" style="fill:#e0e0e0"></polygon><polygon points="445.33 246.55 445.33 187.22 448.04 185.65 448.04 244.99 445.33 246.55" style="fill:#f0f0f0"></polygon><polygon points="456.16 252.81 456.16 193.47 453.45 191.91 453.45 251.24 456.16 252.81" style="fill:#e0e0e0"></polygon><polygon points="456.16 252.81 456.16 193.47 458.87 191.91 458.87 251.24 456.16 252.81" style="fill:#f0f0f0"></polygon><polygon points="328.9 120 328.9 116.87 456.16 190.34 456.16 193.47 328.9 120" style="fill:#e0e0e0"></polygon><polygon points="328.9 116.87 334.32 113.74 461.57 187.22 456.16 190.34 328.9 116.87" style="fill:#fafafa"></polygon><path d="M242.26,237.48l5.41,3.13,86.65-50V94.92l-5.42-3.13s-18.9-1.59-46,14-40.66,36-40.66,36ZM284.9,150.4a11.63,11.63,0,0,1-4.36-9.09,15.8,15.8,0,0,1,1.32-6.12h0v0a11.58,11.58,0,0,1,3.35-4.59,10.29,10.29,0,0,1,.36,2l5.42,3.13c.32-4,2.37-9.48,4.89-11.26a10.11,10.11,0,0,1,.15,1.72c0,6.38-5.05,15.16-6.62,18.1s-3.84,6.41-3.84,6.41Z" style="fill:#f5f5f5"></path><path d="M247.67,144.94v95.67l86.65-50V94.92s-18.9-1.6-46,14S247.67,144.94,247.67,144.94Zm32.86-3.63a15.85,15.85,0,0,1,1.33-6.12h0l0-.05a12.66,12.66,0,0,1,.87-1.68,5.27,5.27,0,0,1,.37-.59,11.06,11.06,0,0,1,1-1.34c.1-.12.22-.23.33-.34a6.86,6.86,0,0,1,.73-.62,5.55,5.55,0,0,1,.56-.38c2.67-1.54,4.88,1.68,5.22,5.46a14,14,0,0,1,.21-1.63,8.28,8.28,0,0,1,.16-.84c.05-.24.11-.49.17-.73s.14-.56.23-.83.16-.56.25-.82.18-.55.28-.82.2-.54.32-.8.22-.52.34-.76a5.49,5.49,0,0,1,.36-.73,6.47,6.47,0,0,1,.38-.69c.12-.23.26-.44.4-.66a6.22,6.22,0,0,1,.43-.58,3.84,3.84,0,0,1,.44-.54,2.74,2.74,0,0,1,.45-.45,2,2,0,0,1,.47-.37,1.48,1.48,0,0,1,.31-.22,2.91,2.91,0,0,1,3.92.43v0h0a7,7,0,0,1,1.32,4.59c0,6.37-5,15.15-6.61,18.09s-3.84,6.42-3.84,6.42a17.28,17.28,0,0,1-4.07-1.84,20.15,20.15,0,0,1-2-1.52,9.11,9.11,0,0,1-.76-.68,12,12,0,0,1-2.74-4c-.08-.17-.15-.36-.22-.55a11.55,11.55,0,0,1-.33-1.13c-.08-.33-.14-.68-.2-1A11.77,11.77,0,0,1,280.53,141.31Z" style="fill:#ebebeb"></path><path d="M285.22,130.57a10.15,10.15,0,0,1,.36,2l5.42,3.12c-.34-3.78-2.55-7-5.22-5.46A5.55,5.55,0,0,0,285.22,130.57Z" style="fill:#e0e0e0"></path><path d="M285.22,130.57a10.15,10.15,0,0,1,.36,2l5.42,3.12c-.34-3.78-2.55-7-5.22-5.46A5.55,5.55,0,0,0,285.22,130.57Z" style="opacity:0.1"></path><path d="M284.9,150.39a20.15,20.15,0,0,0,2,1.52,17.28,17.28,0,0,0,4.07,1.84s2.26-3.48,3.84-6.42,6.61-11.72,6.61-18.09a7,7,0,0,0-1.32-4.59h0v0a2.91,2.91,0,0,0-3.92-.43,1.48,1.48,0,0,0-.31.22,10,10,0,0,1,.15,1.7c0,6.39-5,15.16-6.62,18.11s-3.84,6.41-3.84,6.41S285.3,150.54,284.9,150.39Z" style="fill:#e0e0e0"></path><path d="M284.9,150.39a20.15,20.15,0,0,0,2,1.52,17.28,17.28,0,0,0,4.07,1.84s2.26-3.48,3.84-6.42,6.61-11.72,6.61-18.09a7,7,0,0,0-1.32-4.59h0v0a2.91,2.91,0,0,0-3.92-.43,1.48,1.48,0,0,0-.31.22,10,10,0,0,1,.15,1.7c0,6.39-5,15.16-6.62,18.11s-3.84,6.41-3.84,6.41S285.3,150.54,284.9,150.39Z" style="opacity:0.1"></path><polygon points="242.26 141.82 247.67 144.94 247.67 240.61 242.26 237.48 242.26 141.82" style="fill:#e0e0e0"></polygon><polygon points="383.04 318.82 383.05 304.45 242.25 223.1 242.26 237.48 383.04 318.82" style="fill:#e0e0e0"></polygon><polygon points="247.67 226.23 253.09 223.1 388.47 301.27 388.47 307.52 247.67 226.23" style="fill:#f5f5f5"></polygon><path d="M253.09,216.85c0-3.45,2.58-7.74,5.77-9.58l64.27-37.11a12.75,12.75,0,0,1,11.54,0L464.28,245l-70.06,40.43c-3.19,1.84-5.8,6.11-5.75,9.59v6.26L253.09,223.1Z" style="fill:#f5f5f5"></path><path d="M253.09,223.1v-6.25a10.73,10.73,0,0,1,1.64-5.3l135.35,78.14a10.52,10.52,0,0,0-1.61,5.32v6.26Z" style="fill:#e6e6e6"></path><polygon points="255.79 230.92 255.79 171.58 253.09 170.02 253.09 229.36 255.79 230.92" style="fill:#e0e0e0"></polygon><polygon points="255.79 230.92 255.79 171.58 258.5 170.02 258.5 229.36 255.79 230.92" style="fill:#f0f0f0"></polygon><polygon points="266.62 237.18 266.62 177.84 263.92 176.27 263.92 235.61 266.62 237.18" style="fill:#e0e0e0"></polygon><polygon points="266.62 237.18 266.62 177.84 269.33 176.27 269.33 235.61 266.62 237.18" style="fill:#f0f0f0"></polygon><polygon points="277.45 243.43 277.45 184.09 274.75 182.53 274.75 241.86 277.45 243.43" style="fill:#e0e0e0"></polygon><polygon points="277.45 243.43 277.45 184.09 280.16 182.53 280.16 241.86 277.45 243.43" style="fill:#f0f0f0"></polygon><polygon points="288.29 249.68 288.29 190.34 285.58 188.78 285.58 248.12 288.29 249.68" style="fill:#e0e0e0"></polygon><polygon points="288.29 249.68 288.29 190.34 290.99 188.78 290.99 248.12 288.29 249.68" style="fill:#f0f0f0"></polygon><polygon points="299.12 255.93 299.12 196.59 296.41 195.03 296.41 254.37 299.12 255.93" style="fill:#e0e0e0"></polygon><polygon points="299.12 255.93 299.12 196.59 301.82 195.03 301.82 254.37 299.12 255.93" style="fill:#f0f0f0"></polygon><polygon points="309.95 262.19 309.95 202.85 307.24 201.28 307.24 260.62 309.95 262.19" style="fill:#e0e0e0"></polygon><polygon points="309.95 262.19 309.95 202.85 312.65 201.28 312.65 260.62 309.95 262.19" style="fill:#f0f0f0"></polygon><polygon points="320.78 268.44 320.78 209.1 318.07 207.54 318.07 266.88 320.78 268.44" style="fill:#e0e0e0"></polygon><polygon points="320.78 268.44 320.78 209.1 323.49 207.54 323.49 266.88 320.78 268.44" style="fill:#f0f0f0"></polygon><polygon points="331.61 274.69 331.61 215.35 328.9 213.79 328.9 273.13 331.61 274.69" style="fill:#e0e0e0"></polygon><polygon points="331.61 274.69 331.61 215.35 334.31 213.79 334.31 273.13 331.61 274.69" style="fill:#f0f0f0"></polygon><polygon points="342.44 280.95 342.44 221.61 339.73 220.04 339.73 279.38 342.44 280.95" style="fill:#e0e0e0"></polygon><polygon points="342.44 280.95 342.44 221.61 345.15 220.04 345.15 279.38 342.44 280.95" style="fill:#f0f0f0"></polygon><polygon points="353.27 287.2 353.27 227.86 350.56 226.3 350.56 285.64 353.27 287.2" style="fill:#e0e0e0"></polygon><polygon points="353.27 287.2 353.27 227.86 355.98 226.3 355.98 285.64 353.27 287.2" style="fill:#f0f0f0"></polygon><polygon points="364.1 293.45 364.1 234.11 361.39 232.55 361.39 291.89 364.1 293.45" style="fill:#e0e0e0"></polygon><polygon points="364.1 293.45 364.1 234.11 366.81 232.55 366.81 291.89 364.1 293.45" style="fill:#f0f0f0"></polygon><polygon points="374.93 299.7 374.93 240.37 372.22 238.8 372.22 298.14 374.93 299.7" style="fill:#e0e0e0"></polygon><polygon points="374.93 299.7 374.93 240.37 377.64 238.8 377.64 298.14 374.93 299.7" style="fill:#f0f0f0"></polygon><polygon points="247.67 166.89 247.67 163.77 377.63 238.8 377.63 241.93 247.67 166.89" style="fill:#e0e0e0"></polygon><polygon points="247.67 163.77 253.09 160.64 383.04 235.68 377.63 238.8 247.67 163.77" style="fill:#fafafa"></polygon><path d="M377.63,315.66l5.42,3.13,86.64-50V173.1L464.28,170s-18.91-1.59-46,14.05-40.67,36-40.67,36Zm42.64-87.08a11.63,11.63,0,0,1-4.36-9.09,15.84,15.84,0,0,1,1.32-6.12h0l0,0a11.36,11.36,0,0,1,3.35-4.58,11.19,11.19,0,0,1,.35,1.95l5.42,3.13c.32-4,2.37-9.47,4.9-11.26a11.41,11.41,0,0,1,.14,1.72c0,6.38-5,15.16-6.61,18.1s-3.85,6.42-3.85,6.42Z" style="fill:#f5f5f5"></path><path d="M383,223.12v95.67l86.66-50V173.1s-18.91-1.6-46,14S383,223.12,383,223.12Zm32.87-3.62a15.59,15.59,0,0,1,1.33-6.12h0l0-.06a14.77,14.77,0,0,1,.87-1.68c.12-.2.24-.4.37-.58a10.45,10.45,0,0,1,1-1.35c.11-.12.23-.23.34-.33a7,7,0,0,1,.73-.63,3.6,3.6,0,0,1,.56-.37c2.67-1.55,4.88,1.68,5.21,5.45,0-.52.11-1.07.21-1.63,0-.28.1-.56.16-.84s.11-.49.18-.73a7.79,7.79,0,0,1,.22-.83,7.13,7.13,0,0,1,.26-.82,7.92,7.92,0,0,1,.28-.82,7,7,0,0,1,.32-.8c.1-.26.21-.52.33-.76s.23-.49.36-.73a5.13,5.13,0,0,1,.39-.69,6.44,6.44,0,0,1,.4-.66,4.75,4.75,0,0,1,.42-.58,4.58,4.58,0,0,1,.44-.53,3.33,3.33,0,0,1,.46-.46,1.74,1.74,0,0,1,.46-.37,1.41,1.41,0,0,1,.31-.21,2.9,2.9,0,0,1,3.92.42v0h0a7,7,0,0,1,1.32,4.59c0,6.37-5,15.16-6.61,18.09s-3.84,6.42-3.84,6.42a17.3,17.3,0,0,1-4.06-1.84,20.15,20.15,0,0,1-2-1.52,7.75,7.75,0,0,1-.76-.68,12,12,0,0,1-2.75-4c-.08-.17-.14-.36-.21-.54a9.48,9.48,0,0,1-.33-1.14c-.08-.33-.15-.68-.2-1A11.53,11.53,0,0,1,415.91,219.5Z" style="fill:#ebebeb"></path><path d="M420.6,208.75a11.94,11.94,0,0,1,.36,2l5.41,3.12c-.33-3.77-2.54-7-5.21-5.45A3.6,3.6,0,0,0,420.6,208.75Z" style="fill:#e0e0e0"></path><path d="M420.6,208.75a11.94,11.94,0,0,1,.36,2l5.41,3.12c-.33-3.77-2.54-7-5.21-5.45A3.6,3.6,0,0,0,420.6,208.75Z" style="opacity:0.1"></path><path d="M420.28,228.57a20.15,20.15,0,0,0,2,1.52,17.3,17.3,0,0,0,4.06,1.84s2.27-3.48,3.84-6.42,6.61-11.72,6.61-18.09a7,7,0,0,0-1.32-4.59h0v0a2.9,2.9,0,0,0-3.92-.42,1.41,1.41,0,0,0-.31.21,9,9,0,0,1,.15,1.7c0,6.39-5,15.16-6.61,18.11S421,228.8,421,228.8,420.68,228.72,420.28,228.57Z" style="fill:#e0e0e0"></path><path d="M420.28,228.57a20.15,20.15,0,0,0,2,1.52,17.3,17.3,0,0,0,4.06,1.84s2.27-3.48,3.84-6.42,6.61-11.72,6.61-18.09a7,7,0,0,0-1.32-4.59h0v0a2.9,2.9,0,0,0-3.92-.42,1.41,1.41,0,0,0-.31.21,9,9,0,0,1,.15,1.7c0,6.39-5,15.16-6.61,18.11S421,228.8,421,228.8,420.68,228.72,420.28,228.57Z" style="opacity:0.1"></path><polygon points="377.63 220 383.05 223.12 383.05 318.79 377.63 315.66 377.63 220" style="fill:#e0e0e0"></polygon></g></g><g id="freepik--Plants--inject-64"><g id="freepik--plants--inject-64"><path d="M68.86,383.17a.47.47,0,0,1-.25-.32c-4.64-18.74-22.9-30-30.7-34.85-1.26-.78-2.26-1.4-2.91-1.86a9.39,9.39,0,0,1-4.25-8.24,8.08,8.08,0,0,1,4.75-6.57c6.85-3.45,19.52,3.77,28.84,16.43,13.07,17.74,10.47,32.68,10.45,32.83a.48.48,0,0,1-.28.35l-5.25,2.24a.65.65,0,0,1-.19,0A.5.5,0,0,1,68.86,383.17Zm-5.28-34.84c-9.06-12.3-21.2-19.39-27.66-16.15A7.08,7.08,0,0,0,31.7,338a8.44,8.44,0,0,0,3.86,7.39c.62.45,1.6,1.06,2.85,1.83,7.82,4.84,26,16.1,31,34.89l4.5-1.91C74.15,378.17,75.46,364.47,63.58,348.33Z" style="fill:#BA68C8"></path><path d="M72.05,381.94h.06a.46.46,0,0,0,.41-.54c-3-22.25-21.59-41.3-32.59-44.13a.46.46,0,0,0-.58.34.47.47,0,0,0,.34.58c10.88,2.8,29.07,22.23,31.89,43.34A.47.47,0,0,0,72.05,381.94Z" style="fill:#BA68C8"></path><path d="M74.32,381a.35.35,0,0,0,.2-.05l3.54-1.68a.47.47,0,0,0,.26-.36c0-.22,3.34-22.42-5.82-50.25C67.84,314.46,57.2,301.55,47.2,298c-4.81-1.73-9.22-1.37-13.11,1.08a7.18,7.18,0,0,0-3.7,5.16c-.71,5.64,6.13,12.83,13.36,20.45,5.07,5.32,10.3,10.83,13.09,16a.49.49,0,0,0,.65.19.48.48,0,0,0,.19-.65c-2.85-5.25-8.13-10.81-13.23-16.18-7.08-7.45-13.76-14.48-13.11-19.67a6.17,6.17,0,0,1,3.26-4.47c3.63-2.29,7.76-2.62,12.28-1C56.62,302.36,67,315,71.6,328.93,80.17,355,77.75,376,77.41,378.5l-3.3,1.57a.48.48,0,0,0-.22.64A.47.47,0,0,0,74.32,381Z" style="fill:#BA68C8"></path><path d="M73.18,367.33h0a.47.47,0,0,0,.44-.51c-2.43-34.76-25.77-59.34-32.16-63.2a.48.48,0,0,0-.65.17.47.47,0,0,0,.16.65c6.29,3.8,29.29,28.06,31.7,62.45A.46.46,0,0,0,73.18,367.33Z" style="fill:#BA68C8"></path></g></g><g id="freepik--teddy-bear--inject-64"><g id="freepik--teddy-bear--inject-64"><g id="freepik--Arm--inject-64"><path d="M421.93,338.46c-8.48,3.41-19.73,14.19-20.61,24.45s8.21,12.06,14.26,6.79,13.44-21.52,12.95-26.23S424.62,337.38,421.93,338.46Z" style="fill:#9a4a4d"></path><path d="M401.64,356.55c-13.34-.71-16,20.3-5.2,20.7C407.07,377.65,412.14,357.1,401.64,356.55Z" style="fill:#9a4a4d"></path></g><g id="freepik--Paw--inject-64"><path d="M420.33,395.48c-1.82,3.89-15.91,13.22-19.64,15.08-2,1-5.95,2.51-8.61,2.49-6.73-.06-10.54-3.65-13.62-11.64-2-5.27-3.62-18.47,4.21-21.46,8.8-3.33,15.16,5.43,15.16,5.43s9.29-3.75,15.65-2.72S422.12,391.56,420.33,395.48Z" style="fill:#9a4a4d"></path><path d="M393.16,391.09c-2.31-4.7-5.5-7.32-8.5-8.29a6.09,6.09,0,0,0-7.34,4.08c-1.19,5-.11,11.28,1.14,14.53,2.86,7.44,6.36,11.06,12.26,11.57C398.4,412.1,396.73,398.35,393.16,391.09Z" style="fill:#b16668"></path><path d="M391.73,404.71c0,3.8-2.32,5.55-5.17,3.9s-5.17-6.06-5.17-9.87,2.32-5.55,5.17-3.9S391.73,400.9,391.73,404.71Z" style="fill:#f28f8f"></path><path d="M386.07,390.52c0,1.44-.88,2.1-2,1.48a4.7,4.7,0,0,1-2-3.74c0-1.44.88-2.1,2-1.48A4.69,4.69,0,0,1,386.07,390.52Z" style="fill:#f28f8f"></path><path d="M392.21,394.72c0,1.44-.87,2.1-1.95,1.48a4.69,4.69,0,0,1-2-3.74c0-1.44.88-2.1,2-1.48A4.7,4.7,0,0,1,392.21,394.72Z" style="fill:#f28f8f"></path><path d="M381.51,393.19c0,1.44-.87,2.11-1.95,1.48a4.67,4.67,0,0,1-2-3.74c0-1.44.88-2.1,2-1.47A4.66,4.66,0,0,1,381.51,393.19Z" style="fill:#f28f8f"></path><path d="M402.15,393.59a16.64,16.64,0,0,0-1.68-9.14c-1.61.51-2.64.93-2.64.93A32.06,32.06,0,0,1,402.15,393.59Z" style="opacity:0.1"></path></g><g id="freepik--Body--inject-64"><path d="M470.35,385c-2.18,14.94-12.42,20.46-21.8,22.2a44.93,44.93,0,0,1-12.41.48c-8.88-.88-25.94-3-32.05-22.69-5.84-18.8,12.62-30.28,12.62-30.28,3.77-15.74,17.12-17.08,24.54-16.29C457.88,340.21,473.64,362.6,470.35,385Z" style="fill:#b16668"></path><path d="M417.16,385.83a31.52,31.52,0,0,1,1.41-5.05c1.14-3.19,2.41-6.32,2.44-9.76,0-1.8-.19-3.59-.22-5.39a30.67,30.67,0,0,1,.27-4.49,31.55,31.55,0,0,1,2.89-9.62,6.62,6.62,0,0,1-.91-.77c-.16-.18-.32-.36-.47-.55a1.56,1.56,0,0,1-.38-.64c0-.24.3-.51.52-.37a4.07,4.07,0,0,1,.68.63l.58.55.39.32a31.64,31.64,0,0,1,3.94-5.86,26.61,26.61,0,0,1,7.15-6c.31-.18.64-.35,1-.51.8,0,1.58-.05,2.33,0l-.17.06a23,23,0,0,0-7.68,5.3,31.07,31.07,0,0,0-5.52,7.65,5.39,5.39,0,0,0,2.06.47,2,2,0,0,1,.94.13.3.3,0,0,1,.17.16.19.19,0,0,1,0,.08l-.31.44-.12.05a3.12,3.12,0,0,1-1.36,0,6.34,6.34,0,0,1-1.8-.54,30.58,30.58,0,0,0-2.37,6.94,34.39,34.39,0,0,0-.52,9.23,25.78,25.78,0,0,1-.08,5.27,26.6,26.6,0,0,1-1.25,4.71c-.55,1.55-1.16,3.07-1.65,4.64a27.8,27.8,0,0,0-1.07,5,33,33,0,0,0,.13,10.21,16.24,16.24,0,0,0,2.4,5.94c-.61-.27-1.21-.56-1.81-.87a16,16,0,0,1-.92-2,25.71,25.71,0,0,1-1.23-10A39.65,39.65,0,0,1,417.16,385.83Z" style="fill:#9a4a4d"></path><path d="M406.64,391.17c5.72,10.72,23.18,13.11,38.66,9.45l1-.24c9.46-2.55,17.4-8,16.65-22.83S454,355.37,454,355.37s-5.82,4.7-11.48,2.91c-3.77-1.2-1.65-5.42-1.65-5.42s-13.71.06-19.15-8.12c5.7-6.31,14.18-6.86,19.55-6.29,16.63,1.76,32.39,24.15,29.1,46.58-2.18,14.94-12.42,20.46-21.8,22.2a44.93,44.93,0,0,1-12.41.48C428.29,406.93,414.06,405.16,406.64,391.17Z" style="opacity:0.1"></path><path d="M430.93,364.49c-15.8-7.05-25.53,3.25-24.29,16.48,1.06,11.26,15.64,19.55,29.55,14.32S444.29,370.45,430.93,364.49Z" style="fill:#f28f8f"></path></g><g id="freepik--Head--inject-64"><path d="M432.67,299c.89-3.79-8.15-13.58-16.91-6.11-8,6.81-.86,18,5.71,17.75S432.67,299,432.67,299Z" style="fill:#9a4a4d"></path><path d="M421.35,308.11c-3.37-.08-8.37-4.06-5.63-9a5.74,5.74,0,0,1,9.12-1.61c2.16,2.25,2,5.95,2,5.95Z" style="fill:#f28f8f"></path><path d="M417.64,333.92A29.57,29.57,0,0,1,420,307.48c5.62-8.77,18.12-13.64,30.37-11.5,12.45,2.17,21.14,10.69,22.65,23.23,1.91,15.9-8.28,26.81-24.18,28.73-6,.72-13.53.38-19.17-1.86C424.53,344.05,420.88,341.93,417.64,333.92Z" style="fill:#b16668"></path><path d="M430.84,317.31a1.37,1.37,0,0,1-.7-.09c-.2-.11,0-.39.11-.46a2.5,2.5,0,0,1,1.33-.09,6,6,0,0,1,.61.08,41.35,41.35,0,0,1,2.86-8l.24-.48-.5,0c-.2,0-.4,0-.6,0a1.42,1.42,0,0,1-.71-.08c-.19-.09,0-.39.11-.45a2.5,2.5,0,0,1,1.33-.13c.23,0,.47,0,.7.07a28,28,0,0,1,4.78-6.67h-.07a5,5,0,0,0-.56-.06,4.16,4.16,0,0,1-1.16-.12c-.29-.12,0-.48.19-.55a1.47,1.47,0,0,1,.63-.05c.22,0,.44,0,.66,0s.62.08.93.14a20.66,20.66,0,0,1,4.89-3.45,18.15,18.15,0,0,1,2.78-1.12c.79.1,1.62.24,2.43.38a16.74,16.74,0,0,0-3.79,1.16,19.37,19.37,0,0,0-5.07,3.36c.15.05.31.1.45.16a2.39,2.39,0,0,1,1.06.58c.05.07,0,.28-.09.28a4.47,4.47,0,0,1-1.18-.31c-.26-.08-.52-.14-.79-.2l-.73.75a28.55,28.55,0,0,0-4.2,5.95,5,5,0,0,1,.74.26,1.73,1.73,0,0,1,1,.7c0,.05,0,.14-.06.15a2.87,2.87,0,0,1-1.17-.28,7.42,7.42,0,0,0-.77-.22,41,41,0,0,0-3.13,8.41.83.83,0,0,0,0,.15,5.29,5.29,0,0,1,.87.31c.34.16.78.36.93.72,0,0,0,.15-.06.16a2.74,2.74,0,0,1-1.17-.32l-.72-.23a40.09,40.09,0,0,0-.76,4.05c-.24,1.71-.31,3.44-.45,5.16,0,.45-.95.53-1,.05a34.27,34.27,0,0,1,1.07-9.5l-.59-.07Z" style="fill:#9a4a4d"></path><path d="M446.42,348.12c.81,0,1.62-.08,2.43-.18,15.9-1.92,26.09-12.83,24.18-28.73a28.8,28.8,0,0,0-4.94-12.92c.56.84-1.17,3.82-1.17,3.82,2.05,4,3.92,9.58,2.51,15.23C467.27,334,461.05,343.3,446.42,348.12Z" style="opacity:0.1"></path><path d="M437,324.8c-10.12-2.68-15.77-.16-18.28,6.53-2.39,6.37,2.54,15.88,14.26,17.4,6,.77,13.07.56,15.88-5.24C452.22,336.58,446.12,327.22,437,324.8Z" style="fill:#f28f8f"></path><path d="M425.6,327.59c1.79-1.06,3.39.13,3.87,1.78,1.71-1.86,4.73-2.36,6,.32s-2.16,5.27-6.73,5.66C425.23,333.72,422.84,329.24,425.6,327.59Z" style="fill:#9a4a4d"></path><path d="M439.22,336.51a7.9,7.9,0,0,1-1.37,1.34,5.83,5.83,0,0,1-2.24,1,6.82,6.82,0,0,1-3-.1,5.8,5.8,0,0,0-1.22-.27c-.23,0-.33.14-.35.36a.79.79,0,0,0,.44.78,4.94,4.94,0,0,0,.75.3,8,8,0,0,0,1.62.32,8.85,8.85,0,0,0,2.24-.15,7.68,7.68,0,0,0,2.6-1.31,2.76,2.76,0,0,0,1-1.35C439.8,337.08,439.61,336.09,439.22,336.51Z" style="fill:#37474f"></path><path d="M426.33,327.28a2.64,2.64,0,0,1,3.14,2.09,1.55,1.55,0,0,0-.52.95S428.84,327.11,426.33,327.28Z" style="opacity:0.1"></path><path d="M426.05,327.88c.44-.11.81-.11,1.05.2s-.13.6-.32.83a1.75,1.75,0,0,0-.55,1.2c0,.27,0,.71-.38.86-1.11.48-1.14-.92-.84-2A1.77,1.77,0,0,1,426.05,327.88Z" style="fill:#b16668"></path><path d="M426.75,334a5.08,5.08,0,0,0,1.89.9c1,.2,2.88-.76,4.59-2.35s1.34-4.25,0-4.68a3.07,3.07,0,0,1,2.24,1.81c1.23,2.55-2.16,5.27-6.73,5.66A8.07,8.07,0,0,1,426.75,334Z" style="opacity:0.1"></path><path d="M462.27,306.8a5.51,5.51,0,0,1,.34-3.93c1.43-2.89,5.84-8.27,12.62-6.08,9.89,3.19,10.16,19.48-4,20.07a5,5,0,0,1-3.24-1A17.5,17.5,0,0,1,462.27,306.8Z" style="fill:#9a4a4d"></path><path d="M462.91,308.69a17.89,17.89,0,0,0,3.32,5.51c8,1.68,10.38-4.9,8.83-8.43C473.36,301.92,465.37,300.22,462.91,308.69Z" style="fill:#f28f8f"></path><path d="M451.66,322.44a3.47,3.47,0,1,1-3.56-3.38A3.48,3.48,0,0,1,451.66,322.44Z" style="fill:#263238"></path><path d="M447.52,321.64a1.47,1.47,0,1,0,1.47-1.47A1.47,1.47,0,0,0,447.52,321.64Z" style="fill:#455a64"></path><circle cx="449.9" cy="322.98" r="0.83" style="fill:#fafafa"></circle><path d="M427.86,319.55a3.47,3.47,0,1,1-3.55-3.38A3.46,3.46,0,0,1,427.86,319.55Z" style="fill:#263238"></path><path d="M423.73,318.75a1.47,1.47,0,1,0,1.47-1.47A1.47,1.47,0,0,0,423.73,318.75Z" style="fill:#455a64"></path><circle cx="426.11" cy="320.09" r="0.83" style="fill:#fafafa"></circle></g><g id="freepik--paw--inject-64"><path d="M428.91,419.57c-2.14-5.4-1.94-16.88.65-22.67s8.88-8,13.71-6.15a8.38,8.38,0,0,1,4.3,3.3s4.6-2.92,8.9,2.85c3.25,4.35,2,8,.23,13.26-2.48,7.36-8.4,18.66-18.36,17.74Z" style="fill:#9a4a4d"></path><path d="M447.57,394.05c2.92,2.92,4.77,7.27,4.8,10.36.93-3.48.05-9-2.4-11.08A6.07,6.07,0,0,0,447.57,394.05Z" style="opacity:0.1"></path><path d="M438.07,394.19c-3,.15-5.36,1.1-7.91,5.49-1.86,3.2-3,10.25-1.74,17.87.79,4.74,4.33,10.37,10.49,10.37s8.77-5.16,10.12-9.93c1.25-4.46,1.63-12.7-1.64-18.24C445.21,396.06,441.45,394,438.07,394.19Z" style="fill:#b16668"></path><path d="M443.16,418.74c-1.23,4.17-4.52,6-7.36,4.14s-4.16-6.79-2.93-11,4.51-6,7.36-4.14S444.38,414.57,443.16,418.74Z" style="fill:#f28f8f"></path><path d="M440.29,401.32c-.47,1.58-1.71,2.28-2.79,1.57a3.88,3.88,0,0,1-1.11-4.15c.46-1.58,1.7-2.28,2.78-1.57A3.9,3.9,0,0,1,440.29,401.32Z" style="fill:#f28f8f"></path><path d="M433.43,406c-.39,1.59-1.61,2.35-2.71,1.68a3.87,3.87,0,0,1-1.29-4.09c.39-1.6,1.61-2.36,2.71-1.69A3.89,3.89,0,0,1,433.43,406Z" style="fill:#f28f8f"></path><path d="M443,407.22c.32,1.61,1.5,2.42,2.64,1.81a3.9,3.9,0,0,0,1.48-4c-.32-1.61-1.49-2.43-2.63-1.81A3.9,3.9,0,0,0,443,407.22Z" style="fill:#f28f8f"></path></g><path id="freepik--arm--inject-64" d="M458,347.52c5-1.11,11.51,1.22,16.32,9.8,3.28,5.84,5.36,14.33,2.55,20.27-4,8.5-9.39,13.1-18.73,13.16-5.28,0-10.41-2.18-11.76-6.61-1.24-4.07-.85-8.47,3.81-10.83s8-1.93,9.13-4.79C461.24,363.36,450.5,350.59,458,347.52Z" style="fill:#9a4a4d"></path><g id="freepik--Ribbon--inject-64"><path d="M458.65,345.81s3.43.7,3.78-.31S458.65,345.81,458.65,345.81Z" style="opacity:0.2"></path><path d="M458.1,345.79s4.1-6,4.89-4.66S458.1,345.79,458.1,345.79Z" style="opacity:0.2"></path><path d="M454.22,346.6s-3,1.84-3.65,1S454.22,346.6,454.22,346.6Z" style="opacity:0.2"></path><path d="M454.74,346.39s-5.85-4.25-6.15-2.7S454.74,346.39,454.74,346.39Z" style="opacity:0.2"></path><path d="M455.45,345.82c.24,1.36.35,2.05.59,3.41a19.39,19.39,0,0,1-6.81,6.38c-2.71,1.43-5.33,1.38-6.47.36a2.35,2.35,0,0,1-.66-2.13,9.17,9.17,0,0,0-1.21-6.34,2.89,2.89,0,0,1,.21-2.93,5.89,5.89,0,0,1,5.42-3C450,341.65,453.13,343.73,455.45,345.82Z" style="fill:#BA68C8"></path><path d="M455.45,345.82c.24,1.36.35,2.05.59,3.41a19.39,19.39,0,0,1-6.81,6.38c-2.71,1.43-5.33,1.38-6.47.36a2.35,2.35,0,0,1-.66-2.13,9.17,9.17,0,0,0-1.21-6.34,2.89,2.89,0,0,1,.21-2.93,5.89,5.89,0,0,1,5.42-3C450,341.65,453.13,343.73,455.45,345.82Z" style="fill:#fff;opacity:0.30000000000000004"></path><path d="M455.05,347s-3.49-3.22-4.27-2.18S455.05,347,455.05,347Z" style="fill:#BA68C8;opacity:0.5"></path><path d="M455.24,348.1s-2.19,4.39-3.25,3.78S455.24,348.1,455.24,348.1Z" style="fill:#BA68C8;opacity:0.5"></path><path d="M455.65,347.47s-7.78-1.16-7.44.87S455.65,347.47,455.65,347.47Z" style="fill:#BA68C8;opacity:0.5"></path><path d="M444,352.12c-1.06,1.37-1.86,3-1.2,3.85a2.32,2.32,0,0,1-.66-2.13,9.17,9.17,0,0,0-1.21-6.34,2.89,2.89,0,0,1,.21-2.93c-.49,1.39.47,2.63,2,3.22S445.16,350.56,444,352.12Z" style="fill:#BA68C8;opacity:0.5"></path><path d="M457.21,345.5c.24,1.37.35,2.05.59,3.42a18.92,18.92,0,0,0,8.51,3.64c3,.4,5.47-.56,6.2-1.91a2.34,2.34,0,0,0-.08-2.22,9.21,9.21,0,0,1-1-6.37,2.88,2.88,0,0,0-1.16-2.69,5.75,5.75,0,0,0-6.09-.95C461.06,339.78,458.79,342.6,457.21,345.5Z" style="fill:#BA68C8"></path><path d="M457.21,345.5c.24,1.37.35,2.05.59,3.42a18.92,18.92,0,0,0,8.51,3.64c3,.4,5.47-.56,6.2-1.91a2.34,2.34,0,0,0-.08-2.22,9.21,9.21,0,0,1-1-6.37,2.88,2.88,0,0,0-1.16-2.69,5.75,5.75,0,0,0-6.09-.95C461.06,339.78,458.79,342.6,457.21,345.5Z" style="fill:#fff;opacity:0.30000000000000004"></path><path d="M458,346.44s2.21-4.24,3.29-3.53S458,346.44,458,346.44Z" style="fill:#BA68C8;opacity:0.5"></path><path d="M458.17,347.57s3.51,3.38,4.31,2.44S458.17,347.57,458.17,347.57Z" style="fill:#BA68C8;opacity:0.5"></path><path d="M457.57,347.13s6.94-3.79,7.29-1.76S457.57,347.13,457.57,347.13Z" style="fill:#BA68C8;opacity:0.5"></path><path d="M470.11,347.45c1.45.92,2.73,2.16,2.4,3.2a2.34,2.34,0,0,0-.08-2.22,9.21,9.21,0,0,1-1-6.37,2.88,2.88,0,0,0-1.16-2.69c.92,1.14.43,2.64-.84,3.72A2.78,2.78,0,0,0,470.11,347.45Z" style="fill:#BA68C8;opacity:0.5"></path><path d="M454.31,347.79a2.63,2.63,0,0,0,.82,1.52,1.69,1.69,0,0,0,1.41.44l.88-.16a2.16,2.16,0,0,0,1.45-2.62,3.26,3.26,0,0,0-.22-.71,2.61,2.61,0,0,0-.6-.83,1.7,1.7,0,0,0-1.42-.47l-.88.16a2,2,0,0,0-1.46,1.92A2.71,2.71,0,0,0,454.31,347.79Z" style="fill:#BA68C8"></path><path d="M454.31,347.79a2.63,2.63,0,0,0,.82,1.52,1.69,1.69,0,0,0,1.41.44l.88-.16a2.16,2.16,0,0,0,1.45-2.62,3.26,3.26,0,0,0-.22-.71,2.61,2.61,0,0,0-.6-.83,1.7,1.7,0,0,0-1.42-.47l-.88.16a2,2,0,0,0-1.46,1.92A2.71,2.71,0,0,0,454.31,347.79Z" style="opacity:0.2"></path><path d="M454.29,347a2.33,2.33,0,0,0,.59.81,1.68,1.68,0,0,0,1.41.43l.88-.16a2,2,0,0,0,1.48-1.86,2.47,2.47,0,0,0-.6-.83,1.7,1.7,0,0,0-1.42-.47l-.88.16A2,2,0,0,0,454.29,347Z" style="fill:#BA68C8"></path></g></g></g><g id="freepik--Character--inject-64"><g id="freepik--character--inject-64"><g id="freepik--rocking-chair--inject-64"><path d="M276.65,368.27a13.4,13.4,0,0,0-.36-1.66c-.09-.32-.19-.62-.3-.93a16.38,16.38,0,0,0-1.14-2.53,12.15,12.15,0,0,0-1.33-1.91c-.11-.14-.23-.27-.35-.4a8.41,8.41,0,0,0-1.16-1,5,5,0,0,0-.69-.41,3.42,3.42,0,0,0-1.92-.41,2.17,2.17,0,0,0-.56.13,2.6,2.6,0,0,0-.5.25l-1.82,1.14-.5.33c-.3.18-.61.37-.91.57l-.89.56-.91.57-.28.18-.08,0-.42.27-.09.06,0,0-.07,0h0l-.06,0a3.1,3.1,0,0,0-.34.27,3.19,3.19,0,0,0-.26.26c-.08.11-.17.22-.25.34a4.19,4.19,0,0,0-.41.79c-.11.26-.22.5-.34.73l-.38,0c-.54-.07-1.09-.14-1.65-.23q-3.84-.6-8-1.64h0q-3-.75-6.08-1.7a165.64,165.64,0,0,1-26.37-10.76l-1.71-.88a230.79,230.79,0,0,1-36.62-24.47q-1.69-1.39-3.32-2.77c-1.62-1.38-3.21-2.77-4.74-4.17-.36-.32-.71-.67-1.06-1A32.09,32.09,0,0,1,164.51,307a14.14,14.14,0,0,0-2.23-4.1,8.93,8.93,0,0,0-1.7-1.64c-1.36-1-2.7-1.11-3.71-.43-.57.37-4.9,3.05-6.06,3.83a3.51,3.51,0,0,0-1.35,1.87,7.91,7.91,0,0,0-.41,2.79,14.74,14.74,0,0,0,1.4,6l0,.06c.14.26.28.54.42.82a13.09,13.09,0,0,0,1.25,1.91,8.69,8.69,0,0,0,.92,1,243.18,243.18,0,0,0,51.58,40.73c2.06,1.2,4.1,2.32,6.11,3.38,19,10,40.07,16.21,56.65,16a3,3,0,0,0,.51,0l.26,0,.21-.06.18-.07a.85.85,0,0,0,.25-.13.12.12,0,0,0,.08,0l.08-.05,0,0,0,0,0,0,5.51-3.48.13-.07.21-.14a1.79,1.79,0,0,0,.28-.2l.1-.07a.43.43,0,0,0,.1-.09c.06-.05.11-.12.17-.18C276.67,373.25,277.09,371,276.65,368.27Z" style="fill:#455a64"></path><path d="M270.22,370.43a15.36,15.36,0,0,0-1.45-3.46c-1.5-2.65-3.61-4.37-5.44-4.15a3.53,3.53,0,0,0-.79.23l-.12.07-.05,0,0,0h0l0,0h0a3.1,3.1,0,0,0-.34.27,3.19,3.19,0,0,0-.26.26c-.08.11-.17.22-.25.34a4.19,4.19,0,0,0-.41.79c-.11.26-.22.5-.34.73-1.4,2.81-3.71,4.16-6.44,3.8-.55-.07-1.1-.14-1.65-.24-.73-.11-1.46-.23-2.21-.37h0c-.75-.13-1.5-.28-2.25-.44-.49-.1-1-.21-1.49-.33a155.07,155.07,0,0,1-34.48-12.95c-.58-.28-1.15-.59-1.72-.88a230,230,0,0,1-36.59-24.43c-2.12-1.74-4.12-3.43-5.94-5-.73-.64-1.45-1.28-2.15-1.93-3-2.76-5.55-7.13-7.28-12a13.78,13.78,0,0,0-2.23-4.1,8.7,8.7,0,0,0-1.41-1.43c-1.45-1.16-2.91-1.36-4-.64a3.51,3.51,0,0,0-1.35,1.87,7.91,7.91,0,0,0-.41,2.79,14.74,14.74,0,0,0,1.4,6l0,.06c.14.26.28.54.42.82a13.09,13.09,0,0,0,1.25,1.91,8.69,8.69,0,0,0,.92,1,243.18,243.18,0,0,0,51.58,40.73c2.06,1.2,4.1,2.32,6.11,3.38,19,10,40.07,16.21,56.65,16a3,3,0,0,0,.51,0l.26,0,.21-.06.18-.07a.85.85,0,0,0,.25-.13.12.12,0,0,0,.08,0l.08-.05,0,0,0,0,0,0,.06-.06a1.4,1.4,0,0,0,.38-.35C270.82,376.84,271.17,373.82,270.22,370.43Z" style="fill:#37474f"></path><path d="M262.4,363.12l0,0,0,0,.09-.05,0,0Zm14.25,5.15a15.61,15.61,0,0,0-.37-1.66c-.09-.32-.18-.62-.29-.93a16.38,16.38,0,0,0-1.14-2.53,12.15,12.15,0,0,0-1.33-1.91c-.11-.14-.23-.27-.35-.4a8.41,8.41,0,0,0-1.16-1,5,5,0,0,0-.69-.41,3.42,3.42,0,0,0-1.92-.41,2.68,2.68,0,0,0-.56.13,2.6,2.6,0,0,0-.5.25l-1.82,1.14-.5.33c-.3.18-.61.37-.91.57l-.89.56-.91.57-.28.18-.08,0-.42.27-.09.06.1-.05a3.53,3.53,0,0,1,.79-.23c1.83-.22,3.94,1.5,5.44,4.15a15.36,15.36,0,0,1,1.45,3.46c.95,3.39.6,6.41-.7,7.84a1.4,1.4,0,0,1-.38.35l-.06.06,5.51-3.48.13-.07.21-.14.28-.19.1-.08a.43.43,0,0,0,.1-.09c.06-.05.11-.12.17-.18C276.67,373.25,277.09,371,276.65,368.27Z" style="fill:#263238"></path><path d="M188.15,300a123.27,123.27,0,0,1-8.31,25.9l0,.06-6,3.8c.94-2.19,1.85-4.39,2.71-6.63a113.07,113.07,0,0,0,6.67-25.74Z" style="fill:#263238"></path><path d="M183.19,297.36h0a113.07,113.07,0,0,1-6.67,25.74c-.86,2.24-1.77,4.44-2.71,6.63-2.12-1.74-4.12-3.43-5.94-5,1-2.29,1.94-4.54,2.85-6.8a103.24,103.24,0,0,0,6.64-23.63Z" style="fill:#37474f"></path><path d="M252.57,369.15l-2.21-.37h0c-.75-.13-1.5-.28-2.25-.44-.49-.1-1-.21-1.49-.33q-1.08-3.06-2.06-6c-2.67-8-4.85-15.54-6.63-23.24-1-4.53-1.95-9.12-2.74-13.89L241,328c.47,2.65,1,5.26,1.56,7.86a237.9,237.9,0,0,0,8.05,27.87h0Q251.55,366.36,252.57,369.15Z" style="fill:#37474f"></path><path d="M258.63,365.33l-6.06,3.82q-1-2.79-1.94-5.46h0a237.9,237.9,0,0,1-8.05-27.87c-.57-2.6-1.09-5.21-1.56-7.86l7.62,4A257.41,257.41,0,0,0,258.63,365.33Z" style="fill:#263238"></path><path d="M179.65,427.52a15.43,15.43,0,0,0-1.44-3.47c-1.51-2.64-3.61-4.37-5.45-4.15a2.6,2.6,0,0,0-1.06.38l-6,3.79,0,0a0,0,0,0,0,0,0,.52.52,0,0,0-.17.12,2.46,2.46,0,0,0-.58.58,2,2,0,0,0-.25.37,4.21,4.21,0,0,0-.31.6,4.83,4.83,0,0,1-.23.52,1.51,1.51,0,0,1-.11.22l-.37,0c-.54-.07-1.09-.16-1.65-.25h0c-2.55-.4-5.24-1-8-1.64-2-.49-4-1.06-6.07-1.69a165.78,165.78,0,0,1-28.08-11.65,228.89,228.89,0,0,1-36.62-24.46q-1.68-1.38-3.32-2.77c-1.62-1.37-3.2-2.77-4.74-4.17-.35-.33-.72-.69-1.06-1.06a31.83,31.83,0,0,1-6.21-10.91,14.16,14.16,0,0,0-2.24-4.1c-1.87-2.34-4-3-5.4-2.06-.57.36-4.9,3-6.06,3.82a3.61,3.61,0,0,0-1.35,1.87c-.84,2.34-.38,5.81,1,8.78l0,0,.42.83A11.91,11.91,0,0,0,55.52,379a9.75,9.75,0,0,0,.9,1c17.28,18,38.71,34.11,57.7,44.1s40.07,16.21,56.65,16a3.89,3.89,0,0,0,.51,0l.26-.05.15,0,.25-.1.29-.14.07,0a.09.09,0,0,1,0,0s0,0,.07-.05h0l.19-.13.14-.07,1.14-.73c.16-.09.31-.2.47-.3,1.14-.71,2.48-1.56,3.26-2.06l.32-.2a.62.62,0,0,0,.12-.08l.17-.11h0l0,0,.1-.07.08-.05.09-.08.21-.15a.87.87,0,0,0,.08-.1.29.29,0,0,0,.09-.1,3,3,0,0,0,.31-.38,4.83,4.83,0,0,0,.26-.45C180.33,432.91,180.44,430.34,179.65,427.52Z" style="fill:#455a64"></path><path d="M173.59,431.34a15.54,15.54,0,0,0-1.44-3.46c-1.51-2.64-3.62-4.37-5.45-4.15a1.9,1.9,0,0,0-.36.08,2,2,0,0,0-.55.22l-.09,0,0,0a0,0,0,0,0,0,0,.52.52,0,0,0-.17.12,2.46,2.46,0,0,0-.58.58,2,2,0,0,0-.25.37,4.21,4.21,0,0,0-.31.6c-.07.17-.15.35-.23.52a1.51,1.51,0,0,1-.11.22c-1.39,2.81-3.69,4.15-6.43,3.79l-1.65-.24h0c-.76-.12-1.52-.25-2.29-.4-.08,0-.17,0-.26,0l-1.11-.22c-.49-.09-1-.19-1.46-.31q-.42-.07-.84-.18a156.58,156.58,0,0,1-36.2-13.83,230.16,230.16,0,0,1-36.58-24.43l-.22-.19q-2.06-1.66-4-3.36L71.64,386c-.13-.12-.27-.23-.4-.36-.73-.63-1.44-1.28-2.15-1.92-3-2.76-5.56-7.13-7.27-12a14,14,0,0,0-2.24-4.1c-1.87-2.34-4-3-5.4-2.07a3.61,3.61,0,0,0-1.35,1.87c-.84,2.34-.38,5.81,1,8.78l0,0,.42.83A11.91,11.91,0,0,0,55.52,379a9.75,9.75,0,0,0,.9,1c17.28,18,38.71,34.11,57.7,44.1s40.07,16.21,56.65,16a3.89,3.89,0,0,0,.51,0l.26-.05.15,0,.25-.1.29-.14.07,0a.09.09,0,0,1,0,0s0,0,.07-.05h0s0,0,0,0l0,0a1.49,1.49,0,0,0,.2-.15l.09-.1.1-.1a4.26,4.26,0,0,0,.78-1.34A11,11,0,0,0,173.59,431.34Z" style="fill:#37474f"></path><path d="M179.65,427.52a15.43,15.43,0,0,0-1.44-3.47c-1.51-2.64-3.61-4.37-5.45-4.15a2.6,2.6,0,0,0-1.06.38l-6,3.79,0,0,.11-.06a2,2,0,0,1,.55-.22,1.9,1.9,0,0,1,.36-.08c1.83-.22,3.94,1.51,5.45,4.15a15.54,15.54,0,0,1,1.44,3.46,11,11,0,0,1,.09,6.5,4.28,4.28,0,0,1-.79,1.34s0,.08-.09.1l-.09.1a1.49,1.49,0,0,1-.2.15l0,0s0,0,0,0l.19-.13.14-.07,1.14-.73c.16-.09.31-.2.47-.3,1.14-.71,2.48-1.56,3.26-2.06l.32-.2a.62.62,0,0,0,.12-.08l.17-.11h0l0,0a.3.3,0,0,0,.1-.07l.08-.05.09-.07.21-.16a.87.87,0,0,0,.08-.1.28.28,0,0,0,.1-.09,2.88,2.88,0,0,0,.3-.39,4.83,4.83,0,0,0,.26-.45C180.33,432.91,180.44,430.34,179.65,427.52Z" style="fill:#263238"></path><path d="M85.44,365l4.6,2.42a131.2,131.2,0,0,1-6.83,19.35s0,0,0,.06l-6,3.8c.94-2.19,1.84-4.39,2.7-6.63A113.54,113.54,0,0,0,85.44,365Z" style="fill:#263238"></path><path d="M79.47,361.89l6,3.13a113.54,113.54,0,0,1-5.55,19c-.86,2.24-1.76,4.44-2.7,6.63l-.22-.19c-1.4-1.14-2.75-2.26-4-3.36L71.64,386c-.13-.11-.27-.22-.4-.35h0c1-2.3,2-4.55,2.85-6.81A110.17,110.17,0,0,0,79.47,361.89Z" style="fill:#37474f"></path><path d="M155.93,430.06c-.76-.12-1.52-.25-2.29-.4-.08,0-.17,0-.26,0l-1.11-.22c-.49-.09-1-.19-1.46-.31q-.42-.07-.84-.18h0c-.72-2.05-1.41-4-2.06-6a239.69,239.69,0,0,1-7.9-29.18l5.94,3.13h0a241.12,241.12,0,0,0,8,27.74C154.6,426.38,155.26,428.19,155.93,430.06Z" style="fill:#37474f"></path><path d="M162,426.23h0l-6.05,3.83h0c-.67-1.87-1.33-3.68-2-5.47a241.12,241.12,0,0,1-8-27.74L152,393A257.41,257.41,0,0,0,162,426.23Z" style="fill:#263238"></path><path d="M212.94,217.13,183,216.39a23,23,0,0,0-12.86,3.54l-2.67,1.68A23,23,0,0,0,156.74,242L159,298.92a11.78,11.78,0,0,0,3.73,7.53c14.79,12.23,31.28,23.69,45.93,31.4a220.74,220.74,0,0,0,39.11,16.24,23.08,23.08,0,0,0,18.78-2.63h0a23,23,0,0,0,10.72-20.39l-2.07-52.61C273.89,245.54,245.88,217.94,212.94,217.13Z" style="fill:#BA68C8"></path><path d="M212.94,217.13,183,216.39a23,23,0,0,0-12.86,3.54l-2.67,1.68A23,23,0,0,0,156.74,242L159,298.92a11.78,11.78,0,0,0,3.73,7.53c14.79,12.23,31.28,23.69,45.93,31.4a220.74,220.74,0,0,0,39.11,16.24,23.08,23.08,0,0,0,18.78-2.63h0a23,23,0,0,0,10.72-20.39l-2.07-52.61C273.89,245.54,245.88,217.94,212.94,217.13Z" style="fill:#fff;opacity:0.65"></path><path d="M208.65,337.85a220.74,220.74,0,0,0,39.11,16.24,23,23,0,0,0,29.5-23l-2.07-52.61a61.47,61.47,0,0,0-.91-8.29L187.44,325A229.64,229.64,0,0,0,208.65,337.85Z" style="fill:#BA68C8;opacity:0.30000000000000004"></path><g style="opacity:0.55"><path d="M275.19,278.46a63.88,63.88,0,0,0-5.88-23,67.42,67.42,0,0,0-33.25-32.76,64.18,64.18,0,0,0-23.12-5.54,59.17,59.17,0,0,1,11.93,1.26A62.68,62.68,0,0,1,236.34,222a65,65,0,0,1,33.6,33.11,62.15,62.15,0,0,1,3.81,11.41A59,59,0,0,1,275.19,278.46Z" style="fill:#fff"></path></g><path d="M242.89,352.8a225.92,225.92,0,0,1-34.24-14.95c-14.65-7.71-31.14-19.17-45.93-31.4a11.78,11.78,0,0,1-3.73-7.53l-2.27-57.28A13.93,13.93,0,0,1,171.13,227l25.16.62c32.94.81,61,28.4,62.25,61.32l2,50.43C261,350,253,356.09,242.89,352.8Z" style="fill:#BA68C8"></path><path d="M242.89,352.8a225.92,225.92,0,0,1-34.24-14.95c-14.65-7.71-31.14-19.17-45.93-31.4a11.78,11.78,0,0,1-3.73-7.53l-2.27-57.28A13.93,13.93,0,0,1,171.13,227l25.16.62c32.94.81,61,28.4,62.25,61.32l2,50.43C261,350,253,356.09,242.89,352.8Z" style="fill:#fff;opacity:0.35000000000000003"></path><path d="M192,259.13,171.91,175.2c-2.75-11-10.89-20.45-22-25.43a4.28,4.28,0,0,0-4.06.25L70,197.9a3.49,3.49,0,0,0-1.65,3.48L83.63,306.65l20.4,9.14a9.17,9.17,0,0,0,8.68-.52l75.85-47.88A7.48,7.48,0,0,0,192,259.13Z" style="fill:#BA68C8"></path><path d="M192,259.13,171.91,175.2c-2.75-11-10.89-20.45-22-25.43a4.28,4.28,0,0,0-4.06.25L70,197.9a3.49,3.49,0,0,0-1.65,3.48L83.63,306.65l20.4,9.14a9.17,9.17,0,0,0,8.68-.52l75.85-47.88A7.48,7.48,0,0,0,192,259.13Z" style="fill:#fff;opacity:0.45"></path><path d="M149.9,149.77a4.28,4.28,0,0,0-4.06.25L70,197.9a3.49,3.49,0,0,0-1.65,3.48L72,226.72,168.17,166A39.8,39.8,0,0,0,149.9,149.77Z" style="fill:#fff;opacity:0.30000000000000004"></path><path d="M83.63,306.65,68.35,201.38c-.42-2.93,2.79-5,5.7-3.73h0c11.12,5,19.26,14.38,22,25.43L116.14,307c1.63,6.55-5.52,11.73-12.11,8.78Z" style="fill:#BA68C8"></path><path d="M83.63,306.65,68.35,201.38c-.42-2.93,2.79-5,5.7-3.73h0c11.12,5,19.26,14.38,22,25.43L116.14,307c1.63,6.55-5.52,11.73-12.11,8.78Z" style="fill:#fff;opacity:0.35000000000000003"></path><path d="M265.47,296.7l-55.21-29c-6.68-3.51-17.26-3.09-23.64.94l-60,37.85c-3.16,2-4.69,4.51-4.62,7h0v.06h0l2.2,55.48h0c.09,2.47,1.82,4.88,5.16,6.63l51.43,27.05c6.68,3.51,17.26,3.09,23.64-.94l56.36-35.58c2.84-1.79,4.36-4,4.59-6.2h0l5.2-55.82h0C270.86,301.37,269.15,298.64,265.47,296.7Z" style="fill:#BA68C8"></path><path d="M265.47,296.7l-55.21-29c-6.68-3.51-17.26-3.09-23.64.94l-60,37.85c-3.16,2-4.69,4.51-4.62,7h0v.06h0l2.2,55.48h0c.09,2.47,1.82,4.88,5.16,6.63l51.43,27.05c6.68,3.51,17.26,3.09,23.64-.94l56.36-35.58c2.84-1.79,4.36-4,4.59-6.2h0l5.2-55.82h0C270.86,301.37,269.15,298.64,265.47,296.7Z" style="fill:#fff;opacity:0.45"></path><path d="M187.33,268.2c-.24.13-.48.26-.71.41l-60,37.85c-3.16,2-4.69,4.51-4.62,7h0v.06l2.2,55.48h0c.09,2.47,1.82,4.88,5.16,6.63l51.43,27.05A24.34,24.34,0,0,0,192.74,405l5-53.9Z" style="fill:#BA68C8;opacity:0.30000000000000004"></path><path d="M186.62,268.61l-60,37.85c-6.38,4-6.14,10.14.54,13.65l55.21,29c6.68,3.51,17.26,3.09,23.64-.93l60-37.86c6.38-4,6.13-10.14-.54-13.65l-55.21-29C203.58,264.16,193,264.58,186.62,268.61Z" style="fill:#BA68C8"></path><path d="M186.62,268.61l-60,37.85c-6.38,4-6.14,10.14.54,13.65l55.21,29c6.68,3.51,17.26,3.09,23.64-.93l60-37.86c6.38-4,6.13-10.14-.54-13.65l-55.21-29C203.58,264.16,193,264.58,186.62,268.61Z" style="fill:#fff;opacity:0.6000000000000001"></path></g><g id="freepik--character--inject-64"><g id="freepik--Bottom--inject-64"><path d="M248.08,350.3s-7.49,18.13-7.9,25.29c-.43,7.47-2.25,9.94-1,18.06.27,1.77,1.18,5.32,1.41,6.76a2.12,2.12,0,0,1-1.93,2.64c-3.25.66-8.6-5.45-11.13-12.09s-6.09-21.59-6.31-23.38a10.14,10.14,0,0,1,1.05-5.22,15,15,0,0,1,1.5-2.7c1.09-3.25,1.63-9.43,2.55-13.7Z" style="fill:#ffa8a7"></path><path d="M214.83,374.36a7.64,7.64,0,0,0-.88,2.44c-.08,1.49,3.26,6.41,4.57,8.21s2.59,4,2.39,8.5c-.21,4.76,1.87,9.36,4.93,13.31a32.78,32.78,0,0,0,16.24,10.73c7.86,2.46,10.65-1.47,10.65-1.47s2.45-3.79,1-5.35S214.83,374.36,214.83,374.36Z" style="fill:#263238"></path><path d="M223.75,359.66c-.24,0-.66-.08-1.28.66-.24.28-1.69,3.81-2.89,5.66s-4.34,5.36-4.75,8.38c1.79,5.84,7.25,9.92,8,15.43s.86,11.9,9.29,18.67,17.13,7.52,20.27,5.75,2.86-5.12-1.47-11.52c-4.6-6.8-7.65-21.48-7.65-21.49a50.2,50.2,0,0,1-.79-6.24c-.15-2,.45-4.16.62-6.17a4.59,4.59,0,0,0-.39-2.8,4.72,4.72,0,0,0-2.32-1.62,20.27,20.27,0,0,0-4.34-1.5,7,7,0,0,0-4.48.53c-1,.52-1.78,1.35-2.8,1.77a4,4,0,0,1-4.15-.76,3.43,3.43,0,0,1-1.11-3.83A8.28,8.28,0,0,1,223.75,359.66Z" style="fill:#37474f"></path><path d="M227.24,403s3.31-6.65,12.3-6.57,12.07,4.66,13.42,7.35c1.62,3.21,3.29,9-.43,10.67-4,1.78-8.65,1.2-15.93-2.49S227.24,403,227.24,403Z" style="fill:#fafafa"></path><path d="M229,376a.94.94,0,0,0,.82,0c1.39-.7,8.74-2.21,13,1.78.56-.44.45-1.25-.26-2.4-5-3.2-11.94-1.82-13.62-1a.87.87,0,0,0-.36,1.2A1.05,1.05,0,0,0,229,376Z" style="fill:#fafafa"></path><path d="M243.72,383a2.78,2.78,0,0,0-.51-2.47c-4.92-2.7-11.38-1.39-13-.58a.85.85,0,0,0-.36,1.19.93.93,0,0,0,.42.39.88.88,0,0,0,.82,0C232.45,380.86,239.42,379.45,243.72,383Z" style="fill:#fafafa"></path><path d="M247.33,395.17a5.13,5.13,0,0,0-1.13-3.26c-5-3-11.77-1.67-13.43-.84a.86.86,0,0,0-.35,1.2.93.93,0,0,0,.42.39.94.94,0,0,0,.82,0C235.12,391.92,243.23,390.29,247.33,395.17Z" style="fill:#fafafa"></path><path d="M231.56,387.1a.94.94,0,0,0,.82,0c1.37-.69,8.57-2.16,12.85,1.66a3.13,3.13,0,0,0-.74-2.66c-4.92-2.71-11.39-1.39-13-.58a.85.85,0,0,0-.35,1.19A.93.93,0,0,0,231.56,387.1Z" style="fill:#fafafa"></path><path d="M258.17,377c4.58,19.32,3.78,19.35,9.84,30.15,4.67,8.3,7.05,12.29,13.11,18.4,1.32,1.33,4.28,3.76,5.36,4.84a2.22,2.22,0,0,1,0,3.42c-2.33,2.56-12.88,3.85-19.12-.19s-12.29-13.14-16.07-16.48c-1.42-1.25-2.77-2.54-4.06-3.92s-1-2.68-1.23-4.25c-.1-.76-.13-2.85-.13-2.85-1.07-3.66-3.67-9.35-5.08-12.9Z" style="fill:#ffa8a7"></path><path d="M244.92,423a8.2,8.2,0,0,0,.46,2.68c.69,1.4,6.27,4.16,8.39,5.12s4.44,2.35,6.55,6.52c2.26,4.45,6.52,7.57,11.34,9.59A34.25,34.25,0,0,0,292,448.32c8.42-1.8,8.94-6.82,8.94-6.82s.29-4.71-1.84-5.38S244.92,423,244.92,423Z" style="fill:#263238"></path><path d="M245.47,404.89a1.52,1.52,0,0,0-.81,1.38,63.63,63.63,0,0,1,.28,6.64c-.15,2.47-1.19,7.12,0,10.08,4.64,4.4,11.71,5.31,15.27,9.92s6.91,10.4,18.08,12.24,19.47-2,21.41-5.2,0-6.14-7.26-9.74c-7.68-3.82-18-15.63-18-15.64a50.55,50.55,0,0,1-3.93-5.28c-1.17-1.76-1.73-4-2.62-5.94a4.83,4.83,0,0,0-1.79-2.36,5,5,0,0,0-2.95-.28,21.6,21.6,0,0,0-4.72.88,7.15,7.15,0,0,0-3.81,2.78c-.63,1-.93,2.15-1.65,3.06a4.19,4.19,0,0,1-4.17,1.44,4.25,4.25,0,0,1-2.89-2.73Z" style="fill:#37474f"></path><path d="M271,442.74s-.4-7.76,7.82-12.32,13.4-2,16-.21c3.12,2.1,7.63,6.53,5.09,10-2.74,3.68-7.26,5.54-15.79,5.93S271,442.74,271,442.74Z" style="fill:#fafafa"></path><path d="M258.68,417.18a1,1,0,0,0,.74-.42c.91-1.35,6.83-6.51,12.76-5.06.28-.69-.23-1.38-1.47-2.06-6.19-.35-11.81,4.5-12.91,6.13a.91.91,0,0,0,.29,1.27A1,1,0,0,0,258.68,417.18Z" style="fill:#fafafa"></path><path d="M275.7,416a2.88,2.88,0,0,0-1.73-2c-5.88.07-11.09,4.59-12.14,6.16a.89.89,0,0,0,.29,1.27,1,1,0,0,0,1.33-.28C264.33,419.85,270,415,275.7,416Z" style="fill:#fafafa"></path><path d="M285.24,425.23a5.33,5.33,0,0,0-2.7-2.39c-6.09-.2-11.59,4.54-12.67,6.15a.91.91,0,0,0,.29,1.27,1.05,1.05,0,0,0,.59.14,1,1,0,0,0,.74-.42C272.45,428.55,279,422.9,285.24,425.23Z" style="fill:#fafafa"></path><path d="M266.72,426a.93.93,0,0,0,.75-.42c.9-1.34,6.7-6.38,12.56-5.1a3.27,3.27,0,0,0-2-2.05c-5.88.08-11.09,4.6-12.14,6.16a.89.89,0,0,0,.29,1.27A.93.93,0,0,0,266.72,426Z" style="fill:#fafafa"></path><path d="M200.13,259.23c9.79,5.57,46.55,22.51,59.9,33.83,4.66,3.95,6.58,7.07,4.29,17.84-4.2,19.67-17.13,50.27-17.13,50.27l-51.76-49.85Z" style="fill:#BA68C8"></path><path d="M200.13,259.23c9.79,5.57,46.55,22.51,59.9,33.83,4.66,3.95,6.58,7.07,4.29,17.84-4.2,19.67-17.13,50.27-17.13,50.27l-51.76-49.85Z" style="opacity:0.4"></path><path d="M253,356.77c-12.64-8.3-56.67-62.72-56.67-62.72l0,0c4.57-4.87,5.47-20,5.47-20,2.67,5.49,1.55,14.38.36,17.72,3.22,2.2,21.36,13.9,33.92,21.67,3.15,2,6.43,4.43,8,9.52C247.93,335.1,253,354.22,253,356.77Z" style="opacity:0.30000000000000004"></path><path d="M200.13,259.23h0l-64.07,24c1.47,10.24,3.19,18.94,7.18,24.75s12.27,14.05,29.49,21.37c19.51,8.29,37.23,12.85,41.93,14.53,3.2,1.14,3.77,5,6.34,13.25,2.44,7.84,2.39,8.07,10.54,22.32,7.19,12.58,9.31,15.3,9.31,15.3s12.76-1.77,19.94-9.73c0,0-8.47-41.78-11.62-51.83-2.65-8.45-2.41-11.79-12.71-18.47-8.23-5.35-38.61-21.23-38.61-21.23S208.88,274,200.13,259.23Z" style="fill:#BA68C8"></path><path d="M200.13,259.23h0l-64.07,24c1.47,10.24,3.19,18.94,7.18,24.75s12.27,14.05,29.49,21.37c19.51,8.29,37.23,12.85,41.93,14.53,3.2,1.14,3.77,5,6.34,13.25,2.44,7.84,2.39,8.07,10.54,22.32,7.19,12.58,9.31,15.3,9.31,15.3s12.76-1.77,19.94-9.73c0,0-8.47-41.78-11.62-51.83-2.65-8.45-2.41-11.79-12.71-18.47-8.23-5.35-38.61-21.23-38.61-21.23S208.88,274,200.13,259.23Z" style="opacity:0.30000000000000004"></path><path d="M246.78,393.36l.89-.29a214.21,214.21,0,0,1-12.64-23,100.14,100.14,0,0,1-5.88-17.37c-1.53-5.85-2.75-10.46-5.81-13.12-3.32-2.87-10.45-5.55-20.31-9.25-6.59-2.47-14.06-5.28-22.48-8.89-8.86-3.81-14.79-7.56-18.85-11.87,7-4.23,5.45-11.74,1.89-25.48l-.88.23c3.57,13.76,5,20.66-1.65,24.55-5.25-6-7.16-13-8.38-22.86l-.9.12C154,304,158.42,313,180.19,322.31c8.44,3.63,15.92,6.44,22.52,8.91,9.77,3.67,16.83,6.32,20,9.09,2.85,2.47,4,6.75,5.53,12.66a101,101,0,0,0,5.93,17.52A215.5,215.5,0,0,0,246.78,393.36Z" style="opacity:0.30000000000000004"></path></g><g id="freepik--Top--inject-64"><g id="freepik--Chest--inject-64"><polygon points="210.2 244.19 220.73 269.84 200.13 259.23 198.2 241.83 210.2 244.19" style="fill:#BA68C8"></polygon><g id="freepik--arm--inject-64"><path d="M167.42,190.55c9.2-.09,14.54,1.13,19.8,5.74s27.17,27.14,31.73,33,4.84,4.91,4.46,9.38c-1,11.18-13.91,19.58-13.91,19.58l-15.6,3Z" style="fill:#BA68C8"></path><path d="M167.42,190.55c9.2-.09,14.54,1.13,19.8,5.74s27.17,27.14,31.73,33,4.84,4.91,4.46,9.38c-1,11.18-13.91,19.58-13.91,19.58l-15.6,3Z" style="opacity:0.15"></path></g><g id="freepik--Hair--inject-64"><path d="M188.37,148.07c.95-2.66.88-7.82-.5-10.29a15.44,15.44,0,0,0-6.09-5.74,10.68,10.68,0,0,0-5.32-1.33,41.68,41.68,0,0,0-3.86-2.88c-9.1-6-31.24-10.25-37.22,6.89-10.22,1-13.53,18.72-6.69,30.91,3.59,6.42,7.1,10,8.4,13.63h0l1.16-.6,2.66-1.39,3.82-2,4.66-2.42,5.15-2.68,5.32-2.77,5.15-2.67,4.64-2.42,3.8-2c.88-.46,1.75-.93,2.64-1.37C178.7,157.66,184.74,158.3,188.37,148.07Z" style="fill:#263238"></path><path d="M151.31,141.9c2.77-5.4,1.32-13-3.75-16.54a11.76,11.76,0,0,0-9.67-1.7,8.55,8.55,0,0,0-5.28-4.78c-3.76-1.26-8.27-.37-11.76,1.36a12.61,12.61,0,0,0-6.24,6.49,8.93,8.93,0,0,0,1.13,8.72,5.36,5.36,0,0,0-1.29,10.08,6.83,6.83,0,0,0,4.25,10.7c-6.36,2.28-7,8.92-6.24,12.34,1.05,4.56,4.67,8.56,9.3,9.24a16.22,16.22,0,0,1-5.46-5.59,9.1,9.1,0,0,1-.7-7.61,6.4,6.4,0,0,1,6.12-4.12,3.79,3.79,0,0,0-1.93,3.53,5.18,5.18,0,0,0,2.45,4.1c1.89.86,3.18,1,7-.33,1-.34.55.24,1.59.25a5.41,5.41,0,0,0,3.92-2,18.77,18.77,0,0,0,2.35-3.87,69.51,69.51,0,0,1,8.34-12.51C147.55,147.17,149.83,144.79,151.31,141.9Z" style="fill:#263238"></path></g><path d="M204.27,261.45c-4.18-2.35-8.53-12-8.53-12a63.09,63.09,0,0,1-5.54-19.38s7.2-6.36,1.06-18.38c-4.94-9.68-25.67-20.45-25.67-20.45s-1.06-.27-4.15-.71c-1.25-.18-1.6-1.39-1.52-2.91l0-.18.3-2.67c5.27,1.37,9.17,1,11.5-.58,4-2.72,7-7.25,8.74-21.81,1.65-14,1.07-16.72-2.49-20.56s-8.44,1.85-10.07,1.66-5.82-5.49-12.24-3.84c-2.84.72-5.05,3.21-6.72,5.48a39.65,39.65,0,0,0-4.84,9c-1.28,3.21-1.22,5.44-2.2,6.15a2.18,2.18,0,0,1-2.73,0c-1.11-1.05-1.27-2.78-1.86-3.6-1.7-2.38-4.41-2.62-7.1-.87-4.5,2.95-3.62,9.5.49,13.23s7.14,1.18,7.14,1.18l-1.15,13.49c-1,10.82-3.35,12.15-7.91,14.9-5,3-7.75,4.5-7.75,4.5l2.28,32.21S130.07,252,132,255.56s.91,6,1.58,12a142,142,0,0,0,4.22,22.34s13.2-7.82,37.43-18.27C194.62,263.27,204.27,261.45,204.27,261.45Z" style="fill:#ffa8a7"></path><path d="M186.72,233.47a16.54,16.54,0,0,0,3.86-.62c-.25-1.7-.38-2.76-.38-2.76-5.38,2.24-12.91-.72-13.12-1C178.49,231.53,181.54,233.54,186.72,233.47Z" style="fill:#f28f8f"></path><path d="M134.68,188.42c.79,5.79,4.15,10.73,15.38,17.89s18,11,24.26,24.2C178.93,240.15,189,288.4,189,288.4s-35.27,12.13-53.18,1.79c-3-15.6-2.79-21.06-3.48-29.58-.38-4.6-3.79-11.55-8.23-19.47S120.31,203,120.31,203s7-3.39,10.85-6.7A10,10,0,0,0,134.68,188.42Z" style="fill:#BA68C8"></path><path d="M167.76,224.46a1.86,1.86,0,1,1-2.09-1.59A1.86,1.86,0,0,1,167.76,224.46Z" style="opacity:0.30000000000000004"></path><path d="M172.94,236.6a1.85,1.85,0,1,1-2.09-1.58A1.86,1.86,0,0,1,172.94,236.6Z" style="opacity:0.30000000000000004"></path><path d="M177,249.75a1.86,1.86,0,1,1-2.09-1.59A1.86,1.86,0,0,1,177,249.75Z" style="opacity:0.30000000000000004"></path><path d="M180.58,262.2a1.85,1.85,0,1,1-2.09-1.59A1.86,1.86,0,0,1,180.58,262.2Z" style="opacity:0.30000000000000004"></path><path d="M183.87,275a1.86,1.86,0,1,1-2.09-1.59A1.86,1.86,0,0,1,183.87,275Z" style="opacity:0.30000000000000004"></path><path d="M161,190.67c6.56,4.58,20.19,10.27,25.33,14.78-2.87-3.92-12.6-13.83-16.64-14.89-6.48-.6-9.65-4-9.65-4l-.11,1A2.67,2.67,0,0,0,161,190.67Z" style="fill:#BA68C8"></path><path d="M164.87,216.91c-3.51-3-10-4.47-15.15-4.42s-10.61-.09-10.81-1.58-.82-6.12-.82-6.12-7.64-3.73-9.57-4.52-1.88-1.41-1.37-2.64c1.16-2.79,7-11.63,9.35-11.94l-.29,2c.25,3.09,1.17,7.31,4.23,10.09C144.39,201.34,157.69,209.26,164.87,216.91Z" style="fill:#BA68C8"></path><path d="M164.87,216.91c-3.51-3-10-4.47-15.15-4.42s-10.61-.09-10.81-1.58-.82-6.12-.82-6.12-7.64-3.73-9.57-4.52-1.88-1.41-1.37-2.64c1.16-2.79,7-11.63,9.35-11.94l-.29,2c.25,3.09,1.17,7.31,4.23,10.09C144.39,201.34,157.69,209.26,164.87,216.91Z" style="opacity:0.15"></path><path d="M161.27,157.67a2.56,2.56,0,0,1-2.59,2.27c-2,.16-3.22-1.15-3.24-1.76s1.27.59,3.14.36S161.21,156.74,161.27,157.67Z" style="fill:#263238"></path><path d="M159.78,159.85a1.2,1.2,0,1,1-1.19-1.2A1.18,1.18,0,0,1,159.78,159.85Z" style="fill:#263238"></path><path d="M177.36,158.57a2.55,2.55,0,0,1-2.76,2.05c-2,0-3.12-1.39-3.1-2s1.22.69,3.1.61S177.37,157.63,177.36,158.57Z" style="fill:#263238"></path><path d="M175.41,160.41a1.2,1.2,0,0,1-1.12,1.27,1.18,1.18,0,0,1-1.27-1.11,1.21,1.21,0,0,1,1.12-1.28A1.2,1.2,0,0,1,175.41,160.41Z" style="fill:#263238"></path><path d="M178.31,155.23l-4.46-2.63a2.5,2.5,0,0,1,3.47-1A2.73,2.73,0,0,1,178.31,155.23Z" style="fill:#263238"></path><path d="M158.64,152.48l-4.75,2.05a2.48,2.48,0,0,1,1.26-3.38A2.72,2.72,0,0,1,158.64,152.48Z" style="fill:#263238"></path><path d="M159.89,171l5.07,2.15a2.76,2.76,0,0,1-3.85,1.35A2.59,2.59,0,0,1,159.89,171Z" style="fill:#b16668"></path><path d="M162.6,174.79a2.88,2.88,0,0,0-2.66-2.82h-.27a2.44,2.44,0,0,0,1.44,2.53A3.22,3.22,0,0,0,162.6,174.79Z" style="fill:#f28f8f"></path><path d="M165.69,155l-.1,12.65,7.08-1.24A31.21,31.21,0,0,0,165.69,155Z" style="fill:#f28f8f"></path><path d="M160.24,184.79c-3.44-.78-9.4-2.35-13.52-5.46-2-1.5-4.29-5.54-4.92-7.08,0,0,.55,6.6,3.65,9.34s14.47,6,14.47,6Z" style="fill:#f28f8f"></path></g><g id="freepik--Baby--inject-64"><path d="M156.37,240.5c2.85-5.15,11.12-7.47,17-5.57a29.14,29.14,0,0,1,9.66,5.25s-2.37,5.29-11.07,5.87S156.37,240.5,156.37,240.5Z" style="fill:#e0e0e0"></path><path d="M209.74,225.9c2.34,1.12,3.67,12.16,1.66,18.24-1.64,5-5,12.81-19.18,18.65-10.23,4.21-26.15.85-31.68-3.44-1,2.52-3.32,6.45-5.64,7.11s-7-.89-9.64-4.3-2.92-7.07-1.45-9.56,4.82-.4,5.86.67c-.62-4.63.66-9.74,4-11.93s9.29-2.14,12.41-1.58,8.59,1.29,8.59,1.29l9.34-2.78,5-7.77Z" style="fill:#f1f1f1"></path><path d="M198.42,257.36c-6.38,3.41-18.29,5.16-28.16,2.62s-13.53-8.19-15.79-11.57c.62,2.5,3.41,8.29,6.07,10.94h0c5.53,4.29,21.45,7.65,31.68,3.44s14.87-9.53,17.24-14C208.13,251,205.38,253.64,198.42,257.36Z" style="fill:#e0e0e0"></path><path d="M147.31,251.74c.6,3,3.1,7.51,5.18,8.37a26.15,26.15,0,0,1-2.82-6.84A7.4,7.4,0,0,0,147.31,251.74Z" style="fill:#e0e0e0"></path><g id="freepik--baby--inject-64"><path d="M212.08,204.79A15.44,15.44,0,0,1,208.36,225c-3.83,2.79-11,5.85-16.33,3.15a8,8,0,0,1-3.88-4.35c-.61-1.66,0-3.88-.19-5.61s-1.29-2.94-1.53-4.68a13.69,13.69,0,0,1,.25-4.73,11.2,11.2,0,0,1,1.7-4.29,13.76,13.76,0,0,1,3.26-3.2C198.42,196.46,207.78,197.64,212.08,204.79Z" style="fill:#ffc4c3"></path><path d="M198.07,218c-.23,3.84-2.19,5.21-3.8,4.68.4,10.9,13.91,6.75,19.91-1,5.43-7,4.19-21-5-22.21a10.29,10.29,0,0,0-10.33-3.1c-3.92.85-4.42,1.64-9.41,2.74-3.78.84-6.48,3.76-4.43,7.74-3.34,2.31.21,7.79,3.76,5.57-.54,3.28,1.3,2.42,2.78,3.74.64.58,0,2.23,1,2.32,1.7.16.56-3.24,2.51-3.84C197.36,214,198.16,216.49,198.07,218Z" style="fill:#455a64"></path></g><path d="M177.25,230.15a.36.36,0,0,1,0-.1q-.07-.44-.12-.87c0-.32-.05-.64-.07-1,0-.62,0-1.24-.08-1.87,0-.12,0-.24,0-.36a1.13,1.13,0,0,0-.41-.71,1,1,0,0,0-.32-.21h-.12a.78.78,0,0,0-.16,0,.66.66,0,0,0-.38.29,4.72,4.72,0,0,0-.27.61,1.64,1.64,0,0,1-.36.5.9.9,0,0,0-.2.19c0,.08-.11.15-.16.24a1.69,1.69,0,0,0-.23.65,1.37,1.37,0,0,0-1,.52,1.39,1.39,0,0,0-.25,1.08,1.11,1.11,0,0,0-.78.67,2.66,2.66,0,0,0-.17,1,11.62,11.62,0,0,0,.12,1.86,5.35,5.35,0,0,0,.07.56l.09.47c.06.32.14.63.21.94q.24.93.57,1.83c.08.22.16.44.25.66a.77.77,0,0,0,.07.16s.06,0,.09.07l.3.09.11,0a6.33,6.33,0,0,0,4.25-.87,1.54,1.54,0,0,0,.74-.85,2.15,2.15,0,0,0,0-.67,4.82,4.82,0,0,1,0-.76,10.26,10.26,0,0,1,.22-1.13,24.2,24.2,0,0,0,.29-4.58,2.35,2.35,0,0,0,0-.37.34.34,0,0,0-.21-.29.56.56,0,0,0-.47.07,1.79,1.79,0,0,0-.7.9,11.12,11.12,0,0,1-.42,1.09.38.38,0,0,1-.22.21.16.16,0,0,1-.19-.12Z" style="fill:#ffc4c3"></path><path d="M198.65,229.1c-1.72-2.29-8.17-3.95-12.37,1.15a69,69,0,0,0-5.65,7.86l-1.49-3a11.22,11.22,0,0,1-6.33,1.52c-.2,3.23,1.48,10.72,2.4,13.49s4.44,5.64,9.84,1.2,10-9.51,12.11-13.21S199.3,231.57,198.65,229.1Z" style="fill:#fafafa"></path><path d="M180.63,238.11c-1.13,1.71-2,6.23-.68,8.76-2.33-2.58-2-6.87.11-9.9Z" style="fill:#e0e0e0"></path></g><g id="freepik--arm--inject-64"><path d="M222.05,251c-5.93,5.94-13.82,11.59-31,17.18-9.11,3-20.5,4-26.86,1.45-2.35-1.39-7.9-1.67-8.78-4.11-.35-1-1.72-1.6-2.44-2.44a6.56,6.56,0,0,1-1.16-3.29c6,3.36,17.65.57,19.74-.72a2.47,2.47,0,0,0,1.27-2,3.31,3.31,0,0,0-1.2-2.13c-2.17-2.13-5.09-3.77-6.12-6.76a2,2,0,0,1,.09-1.82c.35-.5,1.1-.93,1.64-.65a26.26,26.26,0,0,0,5.75,2.55,24.08,24.08,0,0,1,7.1,3.66c1.3.91,2.2,2.29,3.85,2.57a9.51,9.51,0,0,0,5-1c8.06-3.39,16.4-11.88,19.65-14.74,2.37-2.37,3.9-4,6-4.93s5.72-2.09,7.58-.31a15.74,15.74,0,0,1,2.85,5C226.9,244,227.12,246,222.05,251Z" style="fill:#f28f8f"></path></g><g id="freepik--arm--inject-64"><path d="M123.68,201.18c-6.24,2.64-11.69,6-13.85,10-2.55,4.73-3.2,8.88-.79,25.62s9.38,35.2,10,36.66a2.81,2.81,0,0,0,3.55,1.71s17.28-13.91,17.89-16.67-1.14-2.69-2.25-7.53-2.72-16.93-3.74-24C132.93,214.57,132.65,206,123.68,201.18Z" style="fill:#BA68C8"></path><path d="M123.68,201.18c-6.24,2.64-11.69,6-13.85,10-2.55,4.73-3.2,8.88-.79,25.62s9.38,35.2,10,36.66a2.81,2.81,0,0,0,3.55,1.71s17.28-13.91,17.89-16.67-1.14-2.69-2.25-7.53-2.72-16.93-3.74-24C132.93,214.57,132.65,206,123.68,201.18Z" style="opacity:0.15"></path><path d="M137.75,259.23c7.61-1.79,14.51-3.92,21.56-8.5,2.76-1.79,4.25-9.07,5.37-12.06a6,6,0,0,1,2.91-3.29c.95-.42,2-.49,3-.91a14.43,14.43,0,0,1,2.17-1.05c.74-.18,1.53,0,2.28-.17,1.28-.23,2.29-1.25,3.6-1.45a4.37,4.37,0,0,1,4.44,2.65l-2.43,3.66s-1.66,6.36-1.54,9.68c.2,5.31-1.19,8.75-8,12.36-3,1.6-11.26,9.59-23.3,16.19-9.38,5.15-14.49,7.92-19.13,6-4-1.65-7.62-10.48-7.62-10.48A28.34,28.34,0,0,1,137.75,259.23Z" style="fill:#ffa8a7"></path></g></g></g><g id="freepik--chair-arm--inject-64"><path d="M122.59,274.13l-29.94-.75a23,23,0,0,0-12.87,3.55l-2.66,1.68A23.05,23.05,0,0,0,66.39,299l2.25,56.92a11.76,11.76,0,0,0,3.73,7.52c14.79,12.24,31.28,23.69,45.94,31.4a219,219,0,0,0,39.11,16.24,23.09,23.09,0,0,0,18.78-2.63h0a23.05,23.05,0,0,0,10.72-20.38l-2.07-52.62C183.54,302.53,155.53,274.93,122.59,274.13Z" style="fill:#BA68C8"></path><path d="M122.59,274.13l-29.94-.75a23,23,0,0,0-12.87,3.55l-2.66,1.68A23.05,23.05,0,0,0,66.39,299l2.25,56.92a11.76,11.76,0,0,0,3.73,7.52c14.79,12.24,31.28,23.69,45.94,31.4a219,219,0,0,0,39.11,16.24,23.09,23.09,0,0,0,18.78-2.63h0a23.05,23.05,0,0,0,10.72-20.38l-2.07-52.62C183.54,302.53,155.53,274.93,122.59,274.13Z" style="fill:#fff;opacity:0.65"></path><path d="M118.31,394.84a219,219,0,0,0,39.11,16.24,23,23,0,0,0,29.5-23l-2.07-52.62a63.17,63.17,0,0,0-.92-8.28L97.09,382A226.27,226.27,0,0,0,118.31,394.84Z" style="fill:#BA68C8;opacity:0.30000000000000004"></path><g style="opacity:0.55"><path d="M184.85,335.45a64.1,64.1,0,0,0-5.89-23,67.35,67.35,0,0,0-33.25-32.75,63.72,63.72,0,0,0-23.12-5.54,58.45,58.45,0,0,1,11.93,1.26A62.41,62.41,0,0,1,146,279a65.07,65.07,0,0,1,33.61,33.11,64,64,0,0,1,3.81,11.41A59.83,59.83,0,0,1,184.85,335.45Z" style="fill:#fff"></path></g><path d="M152.54,409.79a223.84,223.84,0,0,1-34.23-15c-14.66-7.71-31.15-19.16-45.94-31.4a11.76,11.76,0,0,1-3.73-7.52l-2.26-57.29A13.92,13.92,0,0,1,80.78,284l25.17.62c32.93.81,61,28.41,62.25,61.33l2,50.43C170.61,407,162.66,413.09,152.54,409.79Z" style="fill:#BA68C8"></path><path d="M152.54,409.79a223.84,223.84,0,0,1-34.23-15c-14.66-7.71-31.15-19.16-45.94-31.4a11.76,11.76,0,0,1-3.73-7.52l-2.26-57.29A13.92,13.92,0,0,1,80.78,284l25.17.62c32.93.81,61,28.41,62.25,61.33l2,50.43C170.61,407,162.66,413.09,152.54,409.79Z" style="fill:#fff;opacity:0.35000000000000003"></path></g></g></g><g id="freepik--Hearts--inject-64"><g id="freepik--hearts--inject-64"><path d="M225.38,153.18c-3.55-3.66-9.49-2-12.39,3.93.56-6.59-3.69-11.05-8.62-9.73s-7.44,13.44,4.06,26.25C224.88,168.53,228.93,156.83,225.38,153.18Z" style="fill:#BA68C8"></path><path d="M225.38,153.18c-3.55-3.66-9.49-2-12.39,3.93.56-6.59-3.69-11.05-8.62-9.73s-7.44,13.44,4.06,26.25C224.88,168.53,228.93,156.83,225.38,153.18Z" style="fill:#fff;opacity:0.4"></path><path d="M226.86,170c-2.05-1.92-5.28-.87-6.72,2.47.14-3.63-2.31-6-5-5.13s-3.75,7.58,2.9,14.34C227,178.46,228.9,171.92,226.86,170Z" style="fill:#BA68C8"></path></g></g></svg>